<?xml version="1.0" encoding="UTF-8"?><svg id="a" xmlns="http://www.w3.org/2000/svg" viewBox="0 0 606.13 217"><path d="m205.08,26.03c-.31-1.46-1.83-1.3-1.86-.1.6,5.47-6.84,19.34-8.42,10.96,0-.02,0-.04,0-.06-.83-10.99,4.24-27.71-1.02-32-.72-.36.22,13.69-2.98,14.53-1.35-9.91-35.27-33.07-10.01-8.28,9.81,13.32,11.86,27.76,5.38,46.34-8.49,15.58-6.37,11.01-7.57,3.07-2.83-21.65-3.97-3.06-4.15,4.69.25,12.21-10.22,12.44-15.45,16.92-1.16.99.18-5.44.25-8.58.12-6.11-.76-11.84-2.28-11.76-1.52.07-1.3,27.74-14.43,31.7.46-10.66,3.25-34.78-3.79-10.31-4.05,17.33-14.17,17.84-25.64,22.82-3.04-.45-6.16-.68-10.7-.68,0,0-6.92.23-9.96.68-11.47-4.98-21.59-5.49-25.64-22.82-7.04-24.47-4.25-.35-3.8,10.31-13.13-3.96-12.92-31.63-14.43-31.7-1.52-.07-2.4,5.65-2.28,11.76.07,3.15,1.42,9.58.25,8.58-5.23-4.48-15.7-4.72-15.45-16.92-.18-7.74-1.32-26.34-4.15-4.69-1.2,7.94.92,12.51-7.57-3.07-6.48-18.58-4.43-33.02,5.38-46.34,25.27-24.79-8.66-1.64-10.01,8.28-3.19-.84-2.25-14.89-2.97-14.53-5.27,4.3-.19,21.01-1.02,32,0,.02,0,.04,0,.06-1.58,8.38-9.03-5.49-8.42-10.96-.03-1.2-1.54-1.36-1.86.1-2,18.54,2.66,6.3,10.83,36,6.02,21.85,50.95,34.28,65,52.42,1.43,2.23,1.51,3.59,1.51,3.59,0,0-7.24-1.87-9.04-2.08-10.25-1.24-17.12-1.14-17.5.85-.32,1.71,7.33,15.49,16.49,17.16,8.44,1.52,9.91,1,9.91,1l.25,11.9s12.35,20.9,14.59,23.75c3.29,4.21,8.04,3.73,8.04,3.73,0,0-5.04.92-8.46-3.16-2.24-2.67-15.64-22.01-15.64-22.01,0,0-1.76,2.93-2.23,7-2.9,24.36-9.6,53.18-9.6,53.18,0,0,18.6,5.98,35.62,6.06,18.98.1,37.34-5.62,37.34-5.62,0,0-5.73-18.84-8.29-47.94-2.04-10.18-3.22-8.76-3.66-12.23-.45-3.65,1.32-15.26,1.32-15.26h0s6.72,3.6,15.31-4.36c11.17-10.34,12.35-15.73,10.86-15.78-2.92-.1-8.39-2.4-19.24,1.2-.01,0-.02,0-.03,0-5.99,1.95-6.45,1.75-6.45,1.75.26-.37,1.71-2.48,3.29-4.45,15.44-17.22,57.74-29.55,63.56-50.7,8.18-29.7,12.83-17.46,10.83-36" fill="#231f20"/><path d="m427.63,177.56h.54c.95,4.69,2.65,9.59,4.22,12.38l13.87,25.16c1.29.41,3.33.68,6.32.68s4.96-.27,6.32-.68v-47.46c-1.02-.54-2.58-.82-4.83-.82-2.38,0-3.88.27-4.83.82v36.11h-.54c-.82-4.01-2.58-9.32-4.28-12.44l-13.12-23.87c-1.56-.41-3.67-.68-6.66-.68s-5.1.27-6.73.68v47.46c1.02.54,2.58.82,4.83.82,2.38,0,3.94-.27,4.9-.82v-37.33Zm-55.15,13.19c0-10.34,4.35-16.32,12.44-16.32,7.48,0,12.38,6.12,12.38,16.32,0,11.08-4.28,17.27-12.38,17.27s-12.44-6.19-12.44-17.27m12.44-25.23c-13.4,0-23.05,9.38-23.05,25.23,0,17.61,8.23,26.25,23.05,26.25,13.94,0,22.98-9.18,22.98-26.25s-9.25-25.23-22.98-25.23m-43.31,49.3c1.02.54,2.79.88,5.17.88s4.15-.34,5.1-.88v-47.12c-.95-.54-2.65-.88-5.1-.88s-4.15.34-5.17.88v47.12Zm-43.66-37.26h.54c.95,4.69,2.65,9.59,4.22,12.38l13.87,25.16c1.29.41,3.33.68,6.32.68s4.96-.27,6.32-.68v-47.46c-1.02-.54-2.58-.82-4.83-.82-2.38,0-3.88.27-4.83.82v36.11h-.54c-.82-4.01-2.58-9.32-4.28-12.44l-13.12-23.87c-1.56-.41-3.67-.68-6.66-.68s-5.1.27-6.73.68v47.46c1.02.54,2.58.82,4.83.82,2.38,0,3.94-.27,4.9-.82v-37.33Zm-51.14-9.86c-.95-.54-2.65-.88-5.1-.88s-4.15.34-5.17.88v30.33c0,12.38,6.26,18.97,19.58,18.97,14.48,0,20.67-7.75,20.67-20.74v-28.56c-.88-.54-2.58-.88-5.03-.88-2.24,0-4.01.34-4.96.88v29.24c0,6.73-2.86,10.81-10.2,10.81-6.8,0-9.79-3.4-9.79-10.61v-29.44Z" fill="#231f20"/><path d="m596.74,94.95c-.27,5.17-1.5,10.74-3.26,15.16,1.43,1.56,4.35,2.79,7.28,3.13,2.45-4.35,4.96-12.92,5.37-20.13-4.01,0-7,.68-9.38,1.84m-42.84,37.47c-.41,2.92.2,7.21,1.84,9.86,3.74,1.77,8.5,2.72,13.53,2.72,10.27,0,18.5-3.94,18.5-15.91,0-17.61-22.51-12.65-22.51-22.03,0-3.13,2.24-4.96,7.28-4.96,4.62,0,9.38,1.56,13.06,3.81.41-3.06-.34-6.94-1.84-9.38-3.54-2.04-7.41-2.99-11.97-2.99-10.47,0-16.86,5.1-16.86,14.82,0,17.41,22.64,12.04,22.64,22.03,0,3.6-2.38,5.92-8.43,5.92-5.03,0-11.49-1.63-15.23-3.88m-5.51-28.29c.41-.88.75-2.72.75-4.56s-.34-3.6-.75-4.49h-37.6c-.41.88-.75,2.65-.75,4.49s.34,3.67.75,4.56h13.67v38.69c1.02.54,2.72.88,5.17.88s4.15-.34,5.1-.88v-38.69h13.67Zm-77.38,1.43h.54c.95,4.69,2.65,9.59,4.22,12.38l13.87,25.16c1.29.41,3.33.68,6.32.68s4.96-.27,6.32-.68v-47.46c-1.02-.54-2.58-.82-4.83-.82-2.38,0-3.88.27-4.83.82v36.11h-.54c-.82-4.01-2.58-9.32-4.28-12.44l-13.12-23.87c-1.56-.41-3.67-.68-6.66-.68s-5.1.27-6.73.68v47.46c1.02.54,2.58.82,4.83.82,2.38,0,3.94-.27,4.9-.82v-37.33Zm-52.56-10.47v48.35h32.57c.41-.82.68-2.58.68-4.42s-.27-3.54-.68-4.35h-22.44v-11.36h20.2c.41-.88.68-2.52.68-4.28s-.27-3.4-.68-4.28h-20.2v-10.95h21.9c.41-.82.68-2.52.68-4.35s-.27-3.54-.68-4.35h-32.03Zm-40.18,8.64c1.5-.34,3.06-.41,4.62-.41,9.52,0,15.78,4.9,15.78,16.18,0,10.47-5.44,15.5-14.48,15.5-1.9,0-4.01-.07-5.92-.27v-31.01Zm-10.27,39.58c5.17.54,10.81.68,15.91.68,14.01,0,25.36-7.89,25.36-24.96s-10.81-24.48-26.72-24.48c-5.1,0-9.72.34-14.55,1.29v47.46Zm-41.41-47.6c-.95-.54-2.65-.88-5.1-.88s-4.15.34-5.17.88v30.33c0,12.38,6.26,18.97,19.58,18.97,14.48,0,20.67-7.75,20.67-20.74v-28.56c-.88-.54-2.58-.88-5.03-.88-2.24,0-4.01.34-4.96.88v29.24c0,6.73-2.86,10.81-10.2,10.81-6.8,0-9.79-3.4-9.79-10.61v-29.44Zm-18.09,8.43c.41-.88.75-2.72.75-4.56s-.34-3.6-.75-4.49h-37.6c-.41.88-.75,2.65-.75,4.49s.34,3.67.75,4.56h13.67v38.69c1.02.54,2.72.88,5.17.88s4.15-.34,5.1-.88v-38.69h13.67Zm-74.26,28.29c-.41,2.92.2,7.21,1.84,9.86,3.74,1.77,8.5,2.72,13.53,2.72,10.27,0,18.5-3.94,18.5-15.91,0-17.61-22.51-12.65-22.51-22.03,0-3.13,2.24-4.96,7.28-4.96,4.62,0,9.38,1.56,13.06,3.81.41-3.06-.34-6.94-1.84-9.38-3.54-2.04-7.41-2.99-11.97-2.99-10.47,0-16.86,5.1-16.86,14.82,0,17.41,22.64,12.04,22.64,22.03,0,3.6-2.38,5.92-8.43,5.92-5.03,0-11.49-1.63-15.23-3.88" fill="#231f20"/><path d="m468.09,54.09v17c.61.34,1.63.48,3.13.48s2.45-.14,3.06-.48v-17.07l15.98-29.44c-.54-.34-1.7-.54-3.13-.54-1.63,0-2.72.2-3.4.54l-9.11,17.07c-1.16,2.24-2.45,5.37-3.2,8.16h-.27c-.75-2.92-1.84-5.58-3.13-8.02l-9.25-17.2c-.68-.34-1.77-.54-3.47-.54-1.5,0-2.79.2-3.33.54l16.12,29.51Zm-51.41-29.92v47.26h30.6c.34-.68.48-1.63.48-2.79s-.14-2.04-.48-2.72h-24.41v-15.84h22.1c.34-.68.48-1.56.48-2.72s-.14-1.97-.48-2.65h-22.1v-15.1h23.8c.34-.68.48-1.56.48-2.72s-.14-2.04-.48-2.72h-29.99Zm-32.3,4.76c8.43,0,13.74,2.86,13.74,10,0,6.66-4.56,9.32-12.72,9.32-2.45,0-5.58-.27-7.41-.61v-18.16c2.04-.41,4.22-.54,6.39-.54m-12.58,42.16c.61.34,1.63.48,3.13.48s2.45-.14,3.06-.48v-18.02c1.84.27,5.85.54,8.3.54,1.02,0,2.52-.07,3.06-.14l10.88,17.54c.95.41,2.11.54,4.08.54,1.5,0,2.72-.14,3.26-.54l-12.1-18.97c5.44-1.97,8.98-6.39,8.98-13.53,0-10.47-7.55-15.03-20.13-15.03-4.42,0-8.77.34-12.51,1.09v46.51Zm-32.3-42.16c8.43,0,13.74,2.86,13.74,10,0,6.66-4.56,9.32-12.72,9.32-2.45,0-5.58-.27-7.41-.61v-18.16c2.04-.41,4.22-.54,6.39-.54m-12.58,42.16c.61.34,1.63.48,3.13.48s2.45-.14,3.06-.48v-18.02c1.84.27,5.85.54,8.3.54,1.02,0,2.52-.07,3.06-.14l10.88,17.54c.95.41,2.11.54,4.08.54,1.5,0,2.72-.14,3.26-.54l-12.1-18.97c5.44-1.97,8.98-6.39,8.98-13.53,0-10.47-7.55-15.03-20.13-15.03-4.42,0-8.77.34-12.51,1.09v46.51Zm-44.34-46.58c-.61-.34-1.56-.48-3.06-.48s-2.52.14-3.13.48v30.12c0,12.31,5.98,18.36,18.16,18.36,13.19,0,18.97-7.55,18.97-19.58v-28.9c-.61-.34-1.5-.48-2.99-.48s-2.45.14-3.06.48v29.38c0,8.09-3.74,13.46-12.65,13.46-8.3,0-12.24-3.94-12.24-13.26v-29.58Zm-47.8,38.83c-.27,2.04.14,4.9,1.22,6.6,3.26,1.84,8.09,3.06,13.46,3.06,9.11,0,16.93-3.54,16.93-14.48,0-17.07-24-11.83-24-23.66,0-4.01,3.06-6.66,9.11-6.66,4.69,0,9.04,1.63,12.51,4.22.34-2.11-.27-5.03-1.22-6.6-3.26-2.18-7.21-3.2-11.63-3.2-9.38,0-15.03,4.69-15.03,13.06,0,16.73,24.07,10.95,24.07,23.66,0,4.9-3.2,8.02-10.68,8.02-5.1,0-10.88-1.5-14.76-4.01" fill="#231f20"/></svg>