<?xml version="1.0" encoding="UTF-8"?><svg id="a" xmlns="http://www.w3.org/2000/svg" viewBox="0 0 372.01 511.52"><path d="m264.84,472.08h.54c.95,4.69,2.65,9.59,4.22,12.38l13.87,25.16c1.29.41,3.33.68,6.32.68s4.96-.27,6.32-.68v-47.46c-1.02-.54-2.58-.82-4.83-.82-2.38,0-3.88.27-4.83.82v36.11h-.54c-.82-4.01-2.58-9.32-4.28-12.44l-13.12-23.87c-1.56-.41-3.67-.68-6.66-.68s-5.1.27-6.73.68v47.46c1.02.54,2.58.82,4.83.82,2.38,0,3.94-.27,4.9-.82v-37.33Zm-55.15,13.19c0-10.34,4.35-16.32,12.44-16.32,7.48,0,12.38,6.12,12.38,16.32,0,11.08-4.28,17.27-12.38,17.27s-12.44-6.19-12.44-17.27m12.44-25.23c-13.4,0-23.05,9.38-23.05,25.23,0,17.61,8.23,26.25,23.05,26.25,13.94,0,22.98-9.18,22.98-26.25s-9.25-25.23-22.98-25.23m-43.31,49.3c1.02.54,2.79.88,5.17.88s4.15-.34,5.1-.88v-47.12c-.95-.54-2.65-.88-5.1-.88s-4.15.34-5.17.88v47.12Zm-43.66-37.26h.54c.95,4.69,2.65,9.59,4.22,12.38l13.87,25.16c1.29.41,3.33.68,6.32.68s4.96-.27,6.32-.68v-47.46c-1.02-.54-2.58-.82-4.83-.82-2.38,0-3.88.27-4.83.82v36.11h-.54c-.82-4.01-2.58-9.32-4.28-12.44l-13.12-23.87c-1.56-.41-3.67-.68-6.66-.68s-5.1.27-6.73.68v47.46c1.02.54,2.58.82,4.83.82,2.38,0,3.94-.27,4.9-.82v-37.33Zm-51.14-9.86c-.95-.54-2.65-.88-5.1-.88s-4.15.34-5.17.88v30.33c0,12.38,6.26,18.97,19.58,18.97,14.48,0,20.67-7.75,20.67-20.74v-28.56c-.88-.54-2.58-.88-5.03-.88-2.24,0-4.01.34-4.96.88v29.24c0,6.73-2.86,10.81-10.2,10.81-6.8,0-9.79-3.4-9.79-10.61v-29.44Z" fill="#ed2843"/><path d="m362.63,389.48c-.27,5.17-1.5,10.74-3.26,15.16,1.43,1.56,4.35,2.79,7.28,3.13,2.45-4.35,4.96-12.92,5.37-20.13-4.01,0-7,.68-9.38,1.84m-42.84,37.47c-.41,2.92.2,7.21,1.84,9.86,3.74,1.77,8.5,2.72,13.53,2.72,10.27,0,18.5-3.94,18.5-15.91,0-17.61-22.51-12.65-22.51-22.03,0-3.13,2.24-4.96,7.28-4.96,4.62,0,9.38,1.56,13.06,3.81.41-3.06-.34-6.94-1.84-9.38-3.54-2.04-7.41-2.99-11.97-2.99-10.47,0-16.86,5.1-16.86,14.82,0,17.41,22.64,12.04,22.64,22.03,0,3.6-2.38,5.92-8.43,5.92-5.03,0-11.49-1.63-15.23-3.88m-5.51-28.29c.41-.88.75-2.72.75-4.56s-.34-3.6-.75-4.49h-37.6c-.41.88-.75,2.65-.75,4.49s.34,3.67.75,4.56h13.67v38.69c1.02.54,2.72.88,5.17.88s4.15-.34,5.1-.88v-38.69h13.67Zm-77.38,1.43h.54c.95,4.69,2.65,9.59,4.22,12.38l13.87,25.16c1.29.41,3.33.68,6.32.68s4.96-.27,6.32-.68v-47.46c-1.02-.54-2.58-.82-4.83-.82-2.38,0-3.88.27-4.83.82v36.11h-.54c-.82-4.01-2.58-9.32-4.28-12.44l-13.12-23.87c-1.56-.41-3.67-.68-6.66-.68s-5.1.27-6.73.68v47.46c1.02.54,2.58.82,4.83.82,2.38,0,3.94-.27,4.9-.82v-37.33Zm-52.56-10.47v48.35h32.57c.41-.82.68-2.58.68-4.42s-.27-3.54-.68-4.35h-22.44v-11.36h20.2c.41-.88.68-2.52.68-4.28s-.27-3.4-.68-4.28h-20.2v-10.95h21.9c.41-.82.68-2.52.68-4.35s-.27-3.54-.68-4.35h-32.03Zm-40.18,8.64c1.5-.34,3.06-.41,4.62-.41,9.52,0,15.78,4.9,15.78,16.18,0,10.47-5.44,15.5-14.48,15.5-1.9,0-4.01-.07-5.92-.27v-31.01Zm-10.27,39.58c5.17.54,10.81.68,15.91.68,14.01,0,25.36-7.89,25.36-24.96s-10.81-24.48-26.72-24.48c-5.1,0-9.72.34-14.55,1.29v47.46Zm-41.41-47.6c-.95-.54-2.65-.88-5.1-.88s-4.15.34-5.17.88v30.33c0,12.38,6.26,18.97,19.58,18.97,14.48,0,20.67-7.75,20.67-20.74v-28.56c-.88-.54-2.58-.88-5.03-.88-2.24,0-4.01.34-4.96.88v29.24c0,6.73-2.86,10.81-10.2,10.81-6.8,0-9.79-3.4-9.79-10.61v-29.44Zm-18.09,8.43c.41-.88.75-2.72.75-4.56s-.34-3.6-.75-4.49h-37.6c-.41.88-.75,2.65-.75,4.49s.34,3.67.75,4.56h13.67v38.69c1.02.54,2.72.88,5.17.88s4.15-.34,5.1-.88v-38.69h13.67ZM.12,426.94c-.41,2.92.2,7.21,1.84,9.86,3.74,1.77,8.5,2.72,13.53,2.72,10.27,0,18.5-3.94,18.5-15.91,0-17.61-22.51-12.65-22.51-22.03,0-3.13,2.24-4.96,7.28-4.96,4.62,0,9.38,1.56,13.06,3.81.41-3.06-.34-6.94-1.84-9.38-3.54-2.04-7.41-2.99-11.97-2.99-10.47,0-16.86,5.1-16.86,14.82,0,17.41,22.64,12.04,22.64,22.03,0,3.6-2.38,5.92-8.43,5.92-5.03,0-11.49-1.63-15.23-3.88" fill="#ed2843"/><path d="m292.25,348.62v17c.61.34,1.63.48,3.13.48s2.45-.14,3.06-.48v-17.07l15.98-29.44c-.54-.34-1.7-.54-3.13-.54-1.63,0-2.72.2-3.4.54l-9.11,17.07c-1.16,2.24-2.45,5.37-3.2,8.16h-.27c-.75-2.92-1.84-5.58-3.13-8.02l-9.25-17.2c-.68-.34-1.77-.54-3.47-.54-1.5,0-2.79.2-3.33.54l16.12,29.51Zm-51.41-29.92v47.26h30.6c.34-.68.48-1.63.48-2.79s-.14-2.04-.48-2.72h-24.41v-15.84h22.1c.34-.68.48-1.56.48-2.72s-.14-1.97-.48-2.65h-22.1v-15.1h23.8c.34-.68.48-1.56.48-2.72s-.14-2.04-.48-2.72h-29.99Zm-32.3,4.76c8.43,0,13.74,2.86,13.74,10,0,6.66-4.56,9.32-12.72,9.32-2.45,0-5.58-.27-7.41-.61v-18.16c2.04-.41,4.22-.54,6.39-.54m-12.58,42.16c.61.34,1.63.48,3.13.48s2.45-.14,3.06-.48v-18.02c1.84.27,5.85.54,8.3.54,1.02,0,2.52-.07,3.06-.14l10.88,17.54c.95.41,2.11.54,4.08.54,1.5,0,2.72-.14,3.26-.54l-12.1-18.97c5.44-1.97,8.98-6.39,8.98-13.53,0-10.47-7.55-15.03-20.13-15.03-4.42,0-8.77.34-12.51,1.09v46.51Zm-32.3-42.16c8.43,0,13.74,2.86,13.74,10,0,6.66-4.56,9.32-12.72,9.32-2.45,0-5.58-.27-7.41-.61v-18.16c2.04-.41,4.22-.54,6.39-.54m-12.58,42.16c.61.34,1.63.48,3.13.48s2.45-.14,3.06-.48v-18.02c1.84.27,5.85.54,8.3.54,1.02,0,2.52-.07,3.06-.14l10.88,17.54c.95.41,2.11.54,4.08.54,1.5,0,2.72-.14,3.26-.54l-12.1-18.97c5.44-1.97,8.98-6.39,8.98-13.53,0-10.47-7.55-15.03-20.13-15.03-4.42,0-8.77.34-12.51,1.09v46.51Zm-44.34-46.58c-.61-.34-1.56-.48-3.06-.48s-2.52.14-3.13.48v30.12c0,12.31,5.98,18.36,18.16,18.36,13.19,0,18.97-7.55,18.97-19.58v-28.9c-.61-.34-1.5-.48-2.99-.48s-2.45.14-3.06.48v29.38c0,8.09-3.74,13.46-12.65,13.46-8.3,0-12.24-3.94-12.24-13.26v-29.58Zm-47.8,38.83c-.27,2.04.14,4.9,1.22,6.6,3.26,1.84,8.09,3.06,13.46,3.06,9.11,0,16.93-3.54,16.93-14.48,0-17.07-24-11.83-24-23.66,0-4.01,3.06-6.66,9.11-6.66,4.69,0,9.04,1.63,12.51,4.22.34-2.11-.27-5.03-1.22-6.6-3.26-2.18-7.21-3.2-11.63-3.2-9.38,0-15.03,4.69-15.03,13.06,0,16.73,24.07,10.95,24.07,23.66,0,4.9-3.2,8.02-10.68,8.02-5.1,0-10.88-1.5-14.76-4.01" fill="#ed2843"/><path d="m319.9,34.25c-.41-1.92-2.4-1.72-2.45-.13.8,7.2-9,25.44-11.08,14.42,0-.03,0-.05,0-.08-1.1-14.46,5.59-36.46-1.35-42.11-.95-.47.28,18.01-3.91,19.12-1.78-13.04-46.42-43.51-13.17-10.89,12.91,17.54,15.61,36.53,7.08,60.98-11.17,20.49-8.38,14.49-9.96,4.04-3.72-28.48-5.23-4.02-5.46,6.17.33,16.06-13.45,16.37-20.33,22.26-1.54,1.31.24-7.15.33-11.29.16-8.04-1-15.58-3-15.48-2,.09-1.72,36.5-18.99,41.71.6-14.02,4.28-45.76-4.99-13.56-5.33,22.8-18.64,23.47-33.74,30.02-4-.59-8.1-.9-14.08-.89,0,0-9.1.3-13.11.89-15.09-6.56-28.41-7.22-33.74-30.02-9.27-32.2-5.59-.46-4.99,13.56-17.28-5.21-17-41.62-18.99-41.71-1.99-.1-3.16,7.44-3,15.48.09,4.14,1.86,12.6.33,11.29-6.88-5.9-20.66-6.2-20.33-22.26-.23-10.19-1.74-34.66-5.46-6.17-1.59,10.45,1.2,16.46-9.96-4.04-8.54-24.44-5.84-43.44,7.07-60.98,33.24-32.62-11.4-2.15-13.17,10.89-4.2-1.1-2.96-19.59-3.91-19.12-6.94,5.65-.26,27.65-1.35,42.11,0,.03,0,.05,0,.08-2.08,11.02-11.88-7.22-11.08-14.42-.04-1.58-2.03-1.79-2.44.13-2.63,24.4,3.49,8.29,14.25,47.37,7.91,28.75,67.03,45.11,85.52,68.98,1.88,2.93,1.98,4.73,1.98,4.73,0,0-9.52-2.46-11.89-2.74-13.48-1.64-22.53-1.5-23.02,1.12-.42,2.25,9.64,20.39,21.7,22.58,11.1,2.01,13.04,1.32,13.04,1.32l.32,15.66s16.25,27.49,19.2,31.25c4.33,5.54,10.58,4.9,10.58,4.9,0,0-6.64,1.21-11.13-4.15-2.94-3.52-20.58-28.96-20.58-28.96,0,0-2.31,3.86-2.93,9.21-3.82,32.05-12.64,69.96-12.64,69.96,0,0,24.48,7.87,46.88,7.98,24.97.13,49.12-7.4,49.12-7.4,0,0-7.54-24.79-10.91-63.08-2.68-13.4-4.24-11.52-4.82-16.1-.6-4.8,1.73-20.08,1.73-20.08h0s8.84,4.73,20.14-5.74c14.7-13.61,16.25-20.7,14.29-20.76-3.84-.14-11.04-3.16-25.31,1.58-.02,0-.02,0-.04,0-7.89,2.56-8.48,2.31-8.48,2.31.34-.48,2.25-3.26,4.33-5.86,20.32-22.66,75.97-38.88,83.64-66.72,10.76-39.08,16.88-22.98,14.25-47.37" fill="#ed2843"/></svg>