<?xml version="1.0" encoding="UTF-8"?>
<svg id="Team_Surrey_Logo" data-name="Team Surrey Logo" xmlns="http://www.w3.org/2000/svg" xmlns:xlink="http://www.w3.org/1999/xlink" viewBox="0 0 1000 1000">
  <defs>
    <linearGradient id="linear-gradient" x1="39.6199300531" y1="503.4756969021" x2="964.7402493836" y2="503.4756969021" gradientUnits="userSpaceOnUse">
      <stop offset="0" stop-color="#fcc133"/>
      <stop offset=".311366479" stop-color="#fcc133"/>
      <stop offset=".3551914969" stop-color="#edb530"/>
      <stop offset=".4783413416" stop-color="#c8982b"/>
      <stop offset=".577948428" stop-color="#b18728"/>
      <stop offset=".640893294" stop-color="#a98127"/>
      <stop offset=".8538231026" stop-color="#fcc133"/>
    </linearGradient>
  </defs>
  <g id="Team_Surrey_Logo-2" data-name="Team Surrey Logo">
    <path d="M449.9397110474,451.5404512205c0,10.3990038222-5.2148103258,15.7395376126-13.8054313494,15.7395376126-8.5950530019,0-13.8069237503-5.5279883806-13.8069237503-16.2091464099v-37.1072805833h-14.0811184862v37.4811496056c0,19.3033455919,10.515637209,29.1411614744,27.7013564588,29.1411614744,17.188613603,0,28.070296036-9.7427996957,28.070296036-29.6107702717v-37.0115408083h-14.0781789088v37.5768893807h0Z" style="fill: #fff; stroke-width: 0px;"/>
    <polygon points="698.722614346 413.9447033202 683.1788525889 440.2758549117 667.9092855679 413.9447033202 651.4541191408 413.9447033202 676.0464428578 453.6781119133 676.0464428578 479.5405139685 690.1290085206 479.5405139685 690.1290085206 453.396274276 714.721241789 413.9447033202 698.722614346 413.9447033202 698.722614346 413.9447033202" style="fill: #fff; stroke-width: 0px;"/>
    <path d="M512.8867363278,436.5284364049c0,5.5289833145-3.931481277,9.2754068875-10.7882490956,9.2754068875h-14.2648646865v-18.835500541h13.9892679982c6.8582602194,0,11.0638457838,3.1877229679,11.0638457838,9.3715989052v.1884947484h0ZM527.1486614369,435.776944746v-.1859621894c0-6.1864084962-1.9205389828-11.3398947148-5.4860202601-14.9955984064-4.205676013-4.3095561562-10.5140995839-6.6523993522-18.6513020981-6.6523993522h-29.258789795v65.5976648433h14.081073262v-20.9923815476h11.0639362324l13.7150732623,20.9923815476h16.4580607802l-15.6341198442-23.4261255219c8.1357101134-3.0943800791,13.7120884606-9.7466437585,13.7120884606-20.3375793734" style="fill: #fff; stroke-width: 0px;"/>
    <path d="M577.0875139857,436.5284364049c0,5.5289833145-3.9330189021,9.2754068875-10.7883395441,9.2754068875h-14.264774238v-18.835500541h13.9891775497c6.8583054437,0,11.0639362324,3.1877229679,11.0639362324,9.3715989052v.1884947484h0ZM591.3494390948,435.776944746v-.1859621894c0-6.1864084962-1.9190918062-11.3398947148-5.4860654843-14.9955984064-4.2041383878-4.3095561562-10.5141448081-6.6523993522-18.6513020981-6.6523993522h-29.2573426185v65.5976648433h14.0796713097v-20.9923815476h11.0638910081l13.7165656631,20.9923815476h16.4566136036l-15.6342102927-23.4261255219c8.1357553376-3.0943800791,13.7121789091-9.7466437585,13.7121789091-20.3375793734" style="fill: #fff; stroke-width: 0px;"/>
    <path d="M380.2351852164,440.2524739652c-11.0980127182-2.9129855407-13.8498868047-4.325565547-13.8498868047-8.6465182187v-.1915699986c0-3.1955919905,2.8452395875-5.7332161081,8.255690096-5.7332161081,5.3245017874,0,10.8253329952,2.3754498931,16.4180599152,6.3019565006l.4001217098-.6573799575,6.3351511132-10.720277021c-6.3514544618-4.9275005521-14.0232766477-7.7078433152-22.969586538-7.7078433152-13.1193339819,0-22.4746295385,7.8964737364-22.4746295385,19.8335549082v.1877259358c0,13.070898791,8.3476084204,16.7379085496,21.2787416116,20.120050645,10.7334598951,2.8214063983,12.9370575703,4.701062643,12.9370575703,8.3671679162v.1883590756c0,3.8536955363-3.4884191249,6.2038650636-9.2663620339,6.2038650636-7.2880716611,0-13.3105195742-3.0641702682-19.0573255748-7.899775108l-6.8064332085,11.5192993854c7.4362037504,6.1048691413,16.5396001351,9.1687680639,25.5881168707,9.1687680639,13.8514244298,0,23.5756821757-7.3337029473,23.5756821757-20.4007576756v-.1914343258c0-11.4676080472-7.3384062712-16.2627823916-20.3643973642-19.7419757658" style="fill: #fff; stroke-width: 0px;"/>
    <polygon points="601.6072075285 479.5414184539 646.691280148 479.5414184539 646.691280148 466.7027462783 615.5963850782 466.7027462783 615.5963850782 453.4497745849 641.6024194082 453.4497745849 641.6024194082 440.0338598544 615.5963850782 440.0338598544 615.5963850782 426.7808881611 646.691280148 426.7808881611 646.691280148 413.9431204708 601.6072075285 413.9431204708 601.6072075285 479.5414184539 601.6072075285 479.5414184539" style="fill: #fff; stroke-width: 0px;"/>
    <polygon points="86.8735452673 479.5090831024 94.3663924132 479.5090831024 94.3663924132 420.7847833839 116.3762973753 420.7847833839 116.3762973753 413.9476881219 64.8636629174 413.9476881219 64.8636629174 420.7847833839 86.8735452673 420.7847833839 86.8735452673 479.5090831024 86.8735452673 479.5090831024" style="fill: #fdbe40; stroke-width: 0px;"/>
    <polygon points="130.237331962 479.5090831024 178.0972249178 479.5090831024 178.0972249178 472.7656925233 137.6364970371 472.7656925233 137.6364970371 449.8192155862 173.4143650426 449.8192155862 173.4143650426 443.07564411 137.6364970371 443.07564411 137.6364970371 420.6910787009 177.6289276242 420.6910787009 177.6289276242 413.9476881219 130.237331962 413.9476881219 130.237331962 479.5090831024 130.237331962 479.5090831024" style="fill: #fdbe40; stroke-width: 0px;"/>
    <path d="M255.8808400789,479.5090831024l-29.8768020273-66.0296470498h-6.9308677815l-29.8782492039,66.0296470498h7.5873658657l7.7726044668-17.3267737413h35.6843894439l7.6807313667,17.3267737413h7.9608278696ZM237.3361994165,455.5324425679h-29.8767568031l14.985061152-33.4363363134,14.8916956511,33.4363363134h0Z" style="fill: #fdbe40; stroke-width: 0px;"/>
    <polygon points="266.9788527971 479.5090831024 274.1912868701 479.5090831024 274.1912868701 426.4979651414 298.0737252547 461.5266027015 298.4486344351 461.5266027015 322.3310954318 426.4043509069 322.3310954318 479.5090831024 329.7302605068 479.5090831024 329.7302605068 413.9476881219 322.2377299308 413.9476881219 298.3552915463 449.7255561275 274.4713607609 413.9476881219 266.9788527971 413.9476881219 266.9788527971 479.5090831024 266.9788527971 479.5090831024" style="fill: #fdbe40; stroke-width: 0px;"/>
  </g>
  <g id="Karting_Club_Text" data-name="Karting Club Text">
    <path d="M143.091796875,579.2314453125h-11.02734375l-17.6879882812-23.3125-8.0668945312,8.2890625v15.0234375h-9.0288085938v-51.8046875h9.0288085938v26.0498046875l24.64453125-26.0498046875h11.1752929688l-21.5361328125,22.275390625,22.4985351562,29.529296875Z" style="fill: #fff; stroke-width: 0px;"/>
    <path d="M199.4853515625,579.2314453125h-9.62109375l-5.2548828125-12.5068359375h-24.4965820312l-5.328125,12.5068359375h-9.3251953125l22.7944335938-52.1748046875h8.4370117188l22.7944335938,52.1748046875ZM172.32421875,537.935546875l-8.880859375,20.7216796875h17.8359375l-8.955078125-20.7216796875Z" style="fill: #fff; stroke-width: 0px;"/>
    <path d="M241.5952148438,579.2314453125l-12.7685546875-18.0576171875h-11.4321289062v18.0576171875h-9.0288085938v-51.8046875h23.0903320312c2.9604492188,0,5.6362304688.3818359375,8.0297851562,1.146484375,2.392578125.765625,4.4150390625,1.8505859375,6.0688476562,3.2568359375,1.65234375,1.40625,2.9233398438,3.1337890625,3.8115234375,5.1806640625.8876953125,2.046875,1.33203125,4.3291015625,1.33203125,6.8447265625,0,2.171875-.30859375,4.107421875-.9252929688,5.8095703125-.6171875,1.7021484375-1.4682617188,3.2080078125-2.5532226562,4.5146484375-1.0859375,1.3076171875-2.380859375,2.41796875-3.8852539062,3.330078125-1.505859375.9140625-3.1708984375,1.6171875-4.9956054688,2.109375l13.9873046875,19.6123046875h-10.7309570312ZM238.6254882812,537.8330078125c-1.8798828125-1.4609375-4.5283203125-2.19140625-7.9428710938-2.19140625h-13.2880859375v17.46484375h13.36328125c3.265625,0,5.8637695312-.7919921875,7.7939453125-2.376953125,1.9296875-1.5859375,2.8955078125-3.716796875,2.8955078125-6.392578125,0-2.8740234375-.94140625-5.0419921875-2.8217773438-6.50390625Z" style="fill: #fff; stroke-width: 0px;"/>
    <path d="M283.5576171875,579.2314453125h-9.1767578125v-43.3681640625h-16.4296875v-8.4365234375h42.0361328125v8.4365234375h-16.4296875v43.3681640625Z" style="fill: #fff; stroke-width: 0px;"/>
    <path d="M319.1547851562,527.4267578125v51.8046875h-9.0288085938v-51.8046875h9.0288085938Z" style="fill: #fff; stroke-width: 0px;"/>
    <path d="M369.1831054688,527.4267578125h9.0288085938v51.8046875h-7.607421875l-28.5083007812-36.85546875v36.85546875h-9.0288085938v-51.8046875h8.4194335938l27.6962890625,35.8193359375v-35.8193359375Z" style="fill: #fff; stroke-width: 0px;"/>
    <path d="M433.4584960938,575.1611328125c-1.5541992188.9873046875-3.2319335938,1.849609375-5.0322265625,2.58984375-1.8017578125.740234375-3.7377929688,1.3212890625-5.8095703125,1.7392578125-2.072265625.4189453125-4.244140625.62890625-6.5126953125.62890625-4.0463867188,0-7.72265625-.6787109375-11.02734375-2.03515625-3.3061523438-1.3564453125-6.130859375-3.23046875-8.4741210938-5.6240234375-2.34375-2.392578125-4.1567382812-5.2177734375-5.439453125-8.4736328125-1.283203125-3.2568359375-1.923828125-6.7841796875-1.923828125-10.583984375,0-3.650390625.6533203125-7.1044921875,1.9609375-10.3603515625,1.306640625-3.2568359375,3.1455078125-6.10546875,5.513671875-8.5478515625s5.1918945312-4.3779296875,8.4736328125-5.8095703125c3.2807617188-1.4306640625,6.8701171875-2.146484375,10.7680664062-2.146484375,2.2690429688,0,4.3295898438.1611328125,6.1796875.4814453125,1.8505859375.3212890625,3.5639648438.7763671875,5.1435546875,1.369140625,1.5786132812.591796875,3.0712890625,1.3203125,4.4775390625,2.1826171875,1.40625.8642578125,2.775390625,1.86328125,4.107421875,2.998046875l-5.7724609375,6.8818359375c-.9877929688-.837890625-1.998046875-1.6025390625-3.0341796875-2.2939453125-1.0361328125-.6904296875-2.1220703125-1.26953125-3.2563476562-1.7392578125-1.1357421875-.4677734375-2.3813476562-.837890625-3.7377929688-1.109375-1.357421875-.271484375-2.8491210938-.4072265625-4.4770507812-.4072265625-2.3686523438,0-4.5771484375.4814453125-6.6240234375,1.4462890625-2.0478515625.9638671875-3.8237304688,2.2861328125-5.3286132812,3.9677734375-1.5053710938,1.6806640625-2.689453125,3.6328125-3.5522460938,5.857421875-.8637695312,2.2255859375-1.294921875,4.59765625-1.294921875,7.119140625,0,2.669921875.4184570312,5.142578125,1.2578125,7.416015625.8383789062,2.2744140625,2.0356445312,4.2392578125,3.5893554688,5.89453125,1.5541992188,1.65625,3.4047851562,2.955078125,5.55078125,3.8935546875,2.1459960938.939453125,4.5512695312,1.408203125,7.2158203125,1.408203125,2.4663085938,0,4.7734375-.359375,6.9194335938-1.078125,2.146484375-.7197265625,4.0083007812-1.673828125,5.587890625-2.8642578125v-9.7490234375h-13.2475585938v-7.9189453125h22.0541992188v21.7587890625c-1.283203125,1.0859375-2.701171875,2.1220703125-4.2553710938,3.1083984375Z" style="fill: #fff; stroke-width: 0px;"/>
    <path d="M512.6455078125,574.75390625c-1.4560546875,1.1103515625-3.0224609375,2.072265625-4.69921875,2.88671875-1.677734375.8134765625-3.515625,1.431640625-5.513671875,1.849609375-1.998046875.4189453125-4.20703125.62890625-6.6240234375.62890625-3.7998046875,0-7.3017578125-.69140625-10.5087890625-2.072265625-3.2080078125-1.3798828125-5.9833984375-3.267578125-8.326171875-5.6611328125-2.34375-2.392578125-4.1806640625-5.2177734375-5.513671875-8.4736328125-1.33203125-3.2568359375-1.998046875-6.7587890625-1.998046875-10.509765625,0-3.7001953125.6533203125-7.1787109375,1.9619140625-10.4345703125,1.306640625-3.2568359375,3.14453125-6.10546875,5.5126953125-8.5478515625,2.369140625-2.4423828125,5.1806640625-4.3662109375,8.4375-5.7724609375,3.255859375-1.40625,6.857421875-2.109375,10.8046875-2.109375,2.3681640625,0,4.5263671875.1982421875,6.4755859375.591796875,1.94921875.3955078125,3.7373046875.951171875,5.3662109375,1.666015625,1.6279296875.71484375,3.1318359375,1.56640625,4.513671875,2.552734375,1.380859375.9873046875,2.689453125,2.072265625,3.9228515625,3.2568359375l-5.8466796875,6.734375c-2.072265625-1.9248046875-4.2685546875-3.478515625-6.5869140625-4.6630859375-2.3193359375-1.18359375-4.9580078125-1.775390625-7.9189453125-1.775390625-2.466796875,0-4.7490234375.48046875-6.845703125,1.4423828125-2.09765625.9619140625-3.91015625,2.2705078125-5.439453125,3.9228515625-1.529296875,1.6533203125-2.7138671875,3.5888671875-3.5517578125,5.8095703125-.83984375,2.2197265625-1.2587890625,4.61328125-1.2587890625,7.1787109375s.4189453125,4.970703125,1.2587890625,7.2158203125c.837890625,2.2451171875,2.0224609375,4.20703125,3.5517578125,5.8837890625,1.529296875,1.677734375,3.341796875,2.9970703125,5.439453125,3.958984375,2.0966796875.9619140625,4.37890625,1.443359375,6.845703125,1.443359375,3.1572265625,0,5.87109375-.603515625,8.1416015625-1.8134765625,2.2685546875-1.2080078125,4.5146484375-2.849609375,6.734375-4.921875l5.8466796875,5.9208984375c-1.33203125,1.431640625-2.7265625,2.701171875-4.181640625,3.8115234375Z" style="fill: #fff; stroke-width: 0px;"/>
    <path d="M526.3740234375,527.4267578125h9.0283203125v43.58984375h27.2353515625v8.21484375h-36.263671875v-51.8046875Z" style="fill: #fff; stroke-width: 0px;"/>
    <path d="M614.2197265625,556.806640625c0,3.8486328125-.5302734375,7.228515625-1.5908203125,10.1396484375-1.0615234375,2.9111328125-2.552734375,5.3408203125-4.4775390625,7.2900390625-1.923828125,1.94921875-4.2548828125,3.404296875-6.9931640625,4.3662109375s-5.8095703125,1.443359375-9.2138671875,1.443359375c-3.3564453125,0-6.390625-.4814453125-9.103515625-1.443359375-2.7138671875-.9619140625-5.0322265625-2.4052734375-6.95703125-4.330078125-1.923828125-1.923828125-3.404296875-4.3037109375-4.4404296875-7.1416015625-1.0361328125-2.8359375-1.5537109375-6.1298828125-1.5537109375-9.8798828125v-29.82421875h9.029296875v29.4541015625c0,4.8359375,1.1650390625,8.5107421875,3.498046875,11.02734375,2.3310546875,2.5166015625,5.5556640625,3.7744140625,9.6748046875,3.7744140625,4.068359375,0,7.26953125-1.2080078125,9.6015625-3.6259765625,2.3310546875-2.4169921875,3.498046875-6.01953125,3.498046875-10.8056640625v-29.82421875h9.0283203125v29.3798828125Z" style="fill: #fff; stroke-width: 0px;"/>
    <path d="M662.3330078125,530.9853515625c3.052734375,2.373046875,4.580078125,5.609375,4.580078125,9.7119140625,0,1.58203125-.2080078125,2.9912109375-.6240234375,4.2255859375-.416015625,1.236328125-.9541015625,2.3115234375-1.6142578125,3.2265625-.662109375.9150390625-1.4443359375,1.71875-2.349609375,2.41015625-.90625.69140625-1.8232421875,1.2841796875-2.7529296875,1.7783203125,1.51953125.5419921875,2.9052734375,1.169921875,4.15625,1.884765625s2.330078125,1.5634765625,3.23828125,2.548828125c.90625.9853515625,1.60546875,2.154296875,2.095703125,3.509765625.4912109375,1.3544921875.7373046875,2.91796875.7373046875,4.69140625,0,2.314453125-.4560546875,4.359375-1.3671875,6.1318359375-.9111328125,1.7734375-2.2041015625,3.263671875-3.8779296875,4.470703125-1.6748046875,1.20703125-3.6953125,2.1181640625-6.05859375,2.7333984375-2.365234375.615234375-4.9755859375.9228515625-7.83203125.9228515625h-23.9365234375v-51.8046875h23.1953125c5.2197265625,0,9.357421875,1.185546875,12.41015625,3.55859375ZM655.228515625,547.583984375c1.7705078125-1.166015625,2.65625-2.9638671875,2.65625-5.39453125,0-2.1328125-.775390625-3.7822265625-2.3251953125-4.9482421875-1.548828125-1.1650390625-3.7978515625-1.748046875-6.748046875-1.748046875h-13.0556640625v13.8388671875h12.3916015625c2.9501953125,0,5.310546875-.58203125,7.0810546875-1.748046875ZM658.1142578125,569.3515625c1.7705078125-1.208984375,2.65625-2.9970703125,2.65625-5.365234375,0-2.220703125-.8740234375-3.947265625-2.6201171875-5.1806640625s-4.4150390625-1.8505859375-8.005859375-1.8505859375h-14.388671875v14.2099609375h15.052734375c3.0986328125,0,5.5341796875-.6044921875,7.3056640625-1.8134765625Z" style="fill: #fff; stroke-width: 0px;"/>
  </g>
  <path id="Start_Line" data-name="Start Line" d="M39.6199300531,507.212556669v-6.8370952621h894.7226914865l-1.2334620119,6.8370952621H39.6199300531ZM777.7167934676,507.212556669h-51.6220450934l-10.1400445733,50.9854208286h51.6220450934l10.1400445733-50.9854208286ZM819.2074333497,558.1979774977h-51.6220450934l-10.1400445733,51.6220451003h51.6220450934l10.1400445733-51.6220451003ZM757.4592101969,609.820022598h-51.6220450934l-10.1400445733,51.6220451003h51.6220450934l10.1400445733-51.6220451003ZM798.949850079,662.0786919701h-51.6220450934l-10.1400445733,51.6220451003h51.6220450934l10.1400445733-51.6220451003ZM860.7119397457,609.820022598h-51.6220450934l-10.1400445733,51.6220451004h51.6220450934l10.1400445733-51.6220451004ZM902.1965825738,662.0786919701h-51.6220450934l-10.1400445733,51.6220451004h51.6220450934l10.1400445733-51.6220451004ZM880.9695230164,507.212556669h-51.6220450934l-10.1400445733,50.9854208286h51.6220450934l10.1400445733-50.9854208286ZM922.4541658445,558.1979774977h-51.6220450934l-10.1400445733,51.6220451004h51.6220450934l10.1400445733-51.6220451004ZM820.0028770067,293.2506567339h-51.6220450934l-10.1400445733,51.6220451003h51.6220450934l10.1400445733-51.6220451003ZM861.4935168888,344.8727018342h-51.6220450934l-10.1400445733,51.6220451003h51.6220450934l10.1400445733-51.6220451003ZM902.9980232848,396.4947469346h-51.6220450934l-10.1400445733,51.6220451004h51.6220450934l10.1400445733-51.6220451004ZM944.4826661129,448.7534163066h-51.6220450934l-10.1400445733,51.6220451004h51.6220450934l10.1400445733-51.6220451004ZM923.2556065554,293.2506567339h-51.6220450934l-10.1400445733,51.6220451004h51.6220450934l10.1400445733-51.6220451004ZM964.7402493836,344.8727018342h-51.6220450934l-10.1400445733,51.6220451003h51.6220450934l10.1400445733-51.6220451003ZM840.7880014351,448.7534163066h-51.6220450934l-10.1400445733,51.6220451003h51.6220450934l10.1400445733-51.6220451003ZM799.2988972022,397.1313712063h-51.6220450934l-10.1400445733,51.6220451003h51.6220450934l10.1400445733-51.6220451003Z" style="fill: url(#linear-gradient); stroke-width: 0px;"/>
</svg>