<?xml version="1.0" encoding="UTF-8"?>
<svg id="Logo" xmlns="http://www.w3.org/2000/svg" xmlns:xlink="http://www.w3.org/1999/xlink" viewBox="0 0 925.12 420.45">
  <defs>
    <linearGradient id="linear-gradient" x1="0" y1="210.23" x2="925.12" y2="210.23" gradientUnits="userSpaceOnUse">
      <stop offset="0" stop-color="#194561"/>
      <stop offset=".31" stop-color="#194561"/>
      <stop offset=".64" stop-color="#123047"/>
      <stop offset="1" stop-color="#194561"/>
    </linearGradient>
  </defs>
  <path d="M410.32,158.29c0,10.4-5.21,15.74-13.81,15.74s-13.81-5.53-13.81-16.21v-37.11h-14.08v37.48c0,19.3,10.52,29.14,27.7,29.14s28.07-9.74,28.07-29.61v-37.01h-14.08v37.58h0Z" style="fill: #194561; stroke-width: 0px;"/>
  <polygon points="659.1 120.69 643.56 147.03 628.29 120.69 611.83 120.69 636.43 160.43 636.43 186.29 650.51 186.29 650.51 160.15 675.1 120.69 659.1 120.69 659.1 120.69" style="fill: #194561; stroke-width: 0px;"/>
  <path d="M473.27,143.28c0,5.53-3.93,9.28-10.79,9.28h-14.26v-18.84h13.99c6.86,0,11.06,3.19,11.06,9.37v.19h0ZM487.53,142.53v-.19c0-6.19-1.92-11.34-5.49-15-4.21-4.31-10.51-6.65-18.65-6.65h-29.26v65.6h14.08v-20.99h11.06l13.72,20.99h16.46l-15.63-23.43c8.14-3.09,13.71-9.75,13.71-20.34" style="fill: #194561; stroke-width: 0px;"/>
  <path d="M537.47,143.28c0,5.53-3.93,9.28-10.79,9.28h-14.26v-18.84h13.99c6.86,0,11.06,3.19,11.06,9.37v.19h0ZM551.73,142.53v-.19c0-6.19-1.92-11.34-5.49-15-4.2-4.31-10.51-6.65-18.65-6.65h-29.26v65.6h14.08v-20.99h11.06l13.72,20.99h16.46l-15.63-23.43c8.14-3.09,13.71-9.75,13.71-20.34" style="fill: #194561; stroke-width: 0px;"/>
  <path d="M340.62,147c-11.1-2.91-13.85-4.33-13.85-8.65v-.19c0-3.2,2.85-5.73,8.26-5.73s10.83,2.38,16.42,6.3l.4-.66,6.34-10.72c-6.35-4.93-14.02-7.71-22.97-7.71-13.12,0-22.47,7.9-22.47,19.83v.19c0,13.07,8.35,16.74,21.28,20.12,10.73,2.82,12.94,4.7,12.94,8.37v.19c0,3.85-3.49,6.2-9.27,6.2-7.29,0-13.31-3.06-19.06-7.9l-6.81,11.52c7.44,6.1,16.54,9.17,25.59,9.17,13.85,0,23.58-7.33,23.58-20.4v-.19c0-11.47-7.34-16.26-20.36-19.74" style="fill: #194561; stroke-width: 0px;"/>
  <polygon points="561.99 186.29 607.07 186.29 607.07 173.45 575.98 173.45 575.98 160.2 601.98 160.2 601.98 146.78 575.98 146.78 575.98 133.53 607.07 133.53 607.07 120.69 561.99 120.69 561.99 186.29 561.99 186.29" style="fill: #194561; stroke-width: 0px;"/>
  <polygon points="47.25 186.26 54.75 186.26 54.75 127.53 76.76 127.53 76.76 120.7 25.24 120.7 25.24 127.53 47.25 127.53 47.25 186.26 47.25 186.26" style="fill: #194561; stroke-width: 0px;"/>
  <polygon points="90.62 186.26 138.48 186.26 138.48 179.52 98.02 179.52 98.02 156.57 133.79 156.57 133.79 149.82 98.02 149.82 98.02 127.44 138.01 127.44 138.01 120.7 90.62 120.7 90.62 186.26 90.62 186.26" style="fill: #194561; stroke-width: 0px;"/>
  <path d="M216.26,186.26l-29.88-66.03h-6.93l-29.88,66.03h7.59l7.77-17.33h35.68l7.68,17.33h7.96ZM197.72,162.28h-29.88l14.99-33.44,14.89,33.44h0Z" style="fill: #194561; stroke-width: 0px;"/>
  <polygon points="227.36 186.26 234.57 186.26 234.57 133.25 258.45 168.28 258.83 168.28 282.71 133.15 282.71 186.26 290.11 186.26 290.11 120.7 282.62 120.7 258.74 156.47 234.85 120.7 227.36 120.7 227.36 186.26 227.36 186.26" style="fill: #194561; stroke-width: 0px;"/>
  <g id="Karting_Club_Text" data-name="Karting Club Text">
    <path d="M103.47,285.98h-11.03l-17.69-23.31-8.07,8.29v15.02h-9.03v-51.8h9.03v26.05l24.64-26.05h11.18l-21.54,22.28,22.5,29.53Z" style="fill: #194561; stroke-width: 0px;"/>
    <path d="M159.87,285.98h-9.62l-5.25-12.51h-24.5l-5.33,12.51h-9.33l22.79-52.17h8.44l22.79,52.17ZM132.7,244.68l-8.88,20.72h17.84l-8.96-20.72Z" style="fill: #194561; stroke-width: 0px;"/>
    <path d="M201.98,285.98l-12.77-18.06h-11.43v18.06h-9.03v-51.8h23.09c2.96,0,5.64.38,8.03,1.15,2.39.77,4.42,1.85,6.07,3.26,1.65,1.41,2.92,3.13,3.81,5.18.89,2.05,1.33,4.33,1.33,6.84,0,2.17-.31,4.11-.93,5.81-.62,1.7-1.47,3.21-2.55,4.51-1.09,1.31-2.38,2.42-3.89,3.33-1.51.91-3.17,1.62-5,2.11l13.99,19.61h-10.73ZM199.01,244.58c-1.88-1.46-4.53-2.19-7.94-2.19h-13.29v17.46h13.36c3.27,0,5.86-.79,7.79-2.38,1.93-1.59,2.9-3.72,2.9-6.39,0-2.87-.94-5.04-2.82-6.5Z" style="fill: #194561; stroke-width: 0px;"/>
    <path d="M243.94,285.98h-9.18v-43.37h-16.43v-8.44h42.04v8.44h-16.43v43.37Z" style="fill: #194561; stroke-width: 0px;"/>
    <path d="M279.53,234.18v51.8h-9.03v-51.8h9.03Z" style="fill: #194561; stroke-width: 0px;"/>
    <path d="M329.56,234.18h9.03v51.8h-7.61l-28.51-36.86v36.86h-9.03v-51.8h8.42l27.7,35.82v-35.82Z" style="fill: #194561; stroke-width: 0px;"/>
    <path d="M393.84,281.91c-1.55.99-3.23,1.85-5.03,2.59-1.8.74-3.74,1.32-5.81,1.74-2.07.42-4.24.63-6.51.63-4.05,0-7.72-.68-11.03-2.04-3.31-1.36-6.13-3.23-8.47-5.62-2.34-2.39-4.16-5.22-5.44-8.47-1.28-3.26-1.92-6.78-1.92-10.58s.65-7.1,1.96-10.36c1.31-3.26,3.15-6.11,5.51-8.55s5.19-4.38,8.47-5.81c3.28-1.43,6.87-2.15,10.77-2.15,2.27,0,4.33.16,6.18.48,1.85.32,3.56.78,5.14,1.37,1.58.59,3.07,1.32,4.48,2.18,1.41.86,2.78,1.86,4.11,3l-5.77,6.88c-.99-.84-2-1.6-3.03-2.29-1.04-.69-2.12-1.27-3.26-1.74-1.14-.47-2.38-.84-3.74-1.11-1.36-.27-2.85-.41-4.48-.41-2.37,0-4.58.48-6.62,1.45-2.05.96-3.82,2.29-5.33,3.97-1.51,1.68-2.69,3.63-3.55,5.86-.86,2.23-1.29,4.6-1.29,7.12,0,2.67.42,5.14,1.26,7.42.84,2.27,2.04,4.24,3.59,5.89,1.55,1.66,3.4,2.96,5.55,3.89,2.15.94,4.55,1.41,7.22,1.41,2.47,0,4.77-.36,6.92-1.08,2.15-.72,4.01-1.67,5.59-2.86v-9.75h-13.25v-7.92h22.05v21.76c-1.28,1.09-2.7,2.12-4.26,3.11Z" style="fill: #194561; stroke-width: 0px;"/>
    <path d="M473.03,281.5c-1.46,1.11-3.02,2.07-4.7,2.89-1.68.81-3.52,1.43-5.51,1.85-2,.42-4.21.63-6.62.63-3.8,0-7.3-.69-10.51-2.07-3.21-1.38-5.98-3.27-8.33-5.66-2.34-2.39-4.18-5.22-5.51-8.47-1.33-3.26-2-6.76-2-10.51s.65-7.18,1.96-10.43c1.31-3.26,3.14-6.11,5.51-8.55,2.37-2.44,5.18-4.37,8.44-5.77,3.26-1.41,6.86-2.11,10.8-2.11,2.37,0,4.53.2,6.48.59,1.95.4,3.74.95,5.37,1.67,1.63.71,3.13,1.57,4.51,2.55,1.38.99,2.69,2.07,3.92,3.26l-5.85,6.73c-2.07-1.92-4.27-3.48-6.59-4.66-2.32-1.18-4.96-1.78-7.92-1.78-2.47,0-4.75.48-6.85,1.44-2.1.96-3.91,2.27-5.44,3.92-1.53,1.65-2.71,3.59-3.55,5.81-.84,2.22-1.26,4.61-1.26,7.18s.42,4.97,1.26,7.22c.84,2.25,2.02,4.21,3.55,5.88,1.53,1.68,3.34,3,5.44,3.96,2.1.96,4.38,1.44,6.85,1.44,3.16,0,5.87-.6,8.14-1.81,2.27-1.21,4.51-2.85,6.73-4.92l5.85,5.92c-1.33,1.43-2.73,2.7-4.18,3.81Z" style="fill: #194561; stroke-width: 0px;"/>
    <path d="M486.75,234.18h9.03v43.59h27.24v8.21h-36.26v-51.8Z" style="fill: #194561; stroke-width: 0px;"/>
    <path d="M574.6,263.56c0,3.85-.53,7.23-1.59,10.14-1.06,2.91-2.55,5.34-4.48,7.29-1.92,1.95-4.25,3.4-6.99,4.37s-5.81,1.44-9.21,1.44-6.39-.48-9.1-1.44c-2.71-.96-5.03-2.41-6.96-4.33s-3.4-4.3-4.44-7.14c-1.04-2.84-1.55-6.13-1.55-9.88v-29.82h9.03v29.45c0,4.84,1.17,8.51,3.5,11.03,2.33,2.52,5.56,3.77,9.67,3.77s7.27-1.21,9.6-3.63c2.33-2.42,3.5-6.02,3.5-10.81v-29.82h9.03v29.38Z" style="fill: #194561; stroke-width: 0px;"/>
    <path d="M622.71,237.73c3.05,2.37,4.58,5.61,4.58,9.71,0,1.58-.21,2.99-.62,4.23-.42,1.24-.95,2.31-1.61,3.23-.66.92-1.44,1.72-2.35,2.41-.91.69-1.82,1.28-2.75,1.78,1.52.54,2.91,1.17,4.16,1.88s2.33,1.56,3.24,2.55c.91.99,1.61,2.15,2.1,3.51.49,1.35.74,2.92.74,4.69,0,2.31-.46,4.36-1.37,6.13-.91,1.77-2.2,3.26-3.88,4.47-1.67,1.21-3.7,2.12-6.06,2.73-2.37.62-4.98.92-7.83.92h-23.94v-51.8h23.2c5.22,0,9.36,1.19,12.41,3.56ZM615.61,254.33c1.77-1.17,2.66-2.96,2.66-5.39,0-2.13-.78-3.78-2.33-4.95-1.55-1.17-3.8-1.75-6.75-1.75h-13.06v13.84h12.39c2.95,0,5.31-.58,7.08-1.75ZM618.49,276.1c1.77-1.21,2.66-3,2.66-5.37,0-2.22-.87-3.95-2.62-5.18s-4.42-1.85-8.01-1.85h-14.39v14.21h15.05c3.1,0,5.53-.6,7.31-1.81Z" style="fill: #194561; stroke-width: 0px;"/>
  </g>
  <path id="Start_Line" data-name="Start Line" d="M0,213.96v-6.84h894.72l-1.23,6.84H0ZM738.1,213.96h-51.62l-10.14,50.99h51.62l10.14-50.99ZM779.59,264.95h-51.62l-10.14,51.62h51.62l10.14-51.62ZM717.84,316.57h-51.62l-10.14,51.62h51.62l10.14-51.62ZM759.33,368.83h-51.62l-10.14,51.62h51.62l10.14-51.62ZM821.09,316.57h-51.62l-10.14,51.62h51.62l10.14-51.62ZM862.58,368.83h-51.62l-10.14,51.62h51.62l10.14-51.62ZM841.35,213.96h-51.62l-10.14,50.99h51.62l10.14-50.99ZM882.83,264.95h-51.62l-10.14,51.62h51.62l10.14-51.62ZM780.38,0h-51.62l-10.14,51.62h51.62L780.38,0ZM821.87,51.62h-51.62l-10.14,51.62h51.62l10.14-51.62ZM863.38,103.24h-51.62l-10.14,51.62h51.62l10.14-51.62ZM904.86,155.5h-51.62l-10.14,51.62h51.62l10.14-51.62ZM883.64,0h-51.62l-10.14,51.62h51.62l10.14-51.62ZM925.12,51.62h-51.62l-10.14,51.62h51.62l10.14-51.62ZM801.17,155.5h-51.62l-10.14,51.62h51.62l10.14-51.62ZM759.68,103.88h-51.62l-10.14,51.62h51.62l10.14-51.62Z" style="fill: url(#linear-gradient); stroke-width: 0px;"/>
</svg>