<?xml version="1.0" encoding="UTF-8" standalone="no"?>
<!-- Generator: Adobe Illustrator 21.0.0, SVG Export Plug-In . SVG Version: 6.00 Build 0)  -->

<svg
   version="1.1"
   id="Layer_1"
   x="0px"
   y="0px"
   viewBox="0 0 183.5 52.9"
   style="enable-background:new 0 0 183.5 52.9;"
   xml:space="preserve"
   sodipodi:docname="logo_with_name.svg"
   inkscape:version="1.3.2 (091e20e, 2023-11-25)"
   xmlns:inkscape="http://www.inkscape.org/namespaces/inkscape"
   xmlns:sodipodi="http://sodipodi.sourceforge.net/DTD/sodipodi-0.dtd"
   xmlns:xlink="http://www.w3.org/1999/xlink"
   xmlns="http://www.w3.org/2000/svg"
   xmlns:svg="http://www.w3.org/2000/svg"><defs
   id="defs14"><linearGradient
     id="linearGradient1"
     inkscape:collect="always"><stop
       style="stop-color:#000000;stop-opacity:1;"
       offset="0"
       id="stop1" /><stop
       style="stop-color:#000000;stop-opacity:0;"
       offset="1"
       id="stop2" /></linearGradient><linearGradient
     inkscape:collect="always"
     xlink:href="#linearGradient1"
     id="linearGradient2"
     x1="65.4"
     y1="21.3"
     x2="183.5"
     y2="21.3"
     gradientUnits="userSpaceOnUse" /></defs><sodipodi:namedview
   id="namedview14"
   pagecolor="#ffffff"
   bordercolor="#000000"
   borderopacity="0.25"
   inkscape:showpageshadow="2"
   inkscape:pageopacity="0.0"
   inkscape:pagecheckerboard="0"
   inkscape:deskcolor="#d1d1d1"
   inkscape:zoom="4.1416894"
   inkscape:cx="13.038158"
   inkscape:cy="26.438487"
   inkscape:window-width="1392"
   inkscape:window-height="1212"
   inkscape:window-x="0"
   inkscape:window-y="25"
   inkscape:window-maximized="0"
   inkscape:current-layer="Layer_1" />
<style
   type="text/css"
   id="style1">
	.st0{display:none;fill:#FFFFFF;}
	.st1{fill:#25A9E0;}
	.st2{fill:#595D62;}
</style>
<rect
   x="-72.8"
   y="-159.8"
   class="st0"
   width="425.2"
   height="425.2"
   id="rect1" />
<path
   class="st1"
   d="M51.6,51.3c0,0.8-0.7,1.5-1.5,1.5H46c-0.8,0-1.5-0.7-1.5-1.5v-4.7c0-0.8,0.7-1.5,1.5-1.5h4.1  c0.8,0,1.5,0.7,1.5,1.5V51.3z"
   id="path1"
   inkscape:export-filename="logo.svg"
   inkscape:export-xdpi="96"
   inkscape:export-ydpi="96" />
<g
   id="g4"
   inkscape:export-filename="logo.svg"
   inkscape:export-xdpi="96"
   inkscape:export-ydpi="96"
   style="fill:#ffffff;fill-opacity:1">
	<g
   id="g2"
   style="fill:#ffffff;fill-opacity:1">
		<path
   class="st2"
   d="M41.9,34.4c-0.8,0-1.5-0.7-1.5-1.5V2.6c0-0.8-0.7-1.5-1.5-1.5H1.5C0.7,1.1,0,1.8,0,2.6V40    c0,0.8,0.7,1.5,1.5,1.5h10.3c0.8,0,1.5,0,1.5,0s0.7,0,1.5,0h36.1c0.8,0,1.5-0.7,1.5-1.5v-4.1c0-0.8-0.7-1.5-1.5-1.5H41.9z     M33.1,22.2c0,0.8,0,2.2,0,3v7.5c0,0.8-0.7,1.5-1.5,1.5H8.8c-0.8,0-1.5-0.7-1.5-1.5V10c0-0.8,0.7-1.5,1.5-1.5h22.7    c0.8,0,1.5,0.7,1.5,1.5V22.2z"
   id="path2"
   style="fill:#ffffff;fill-opacity:1" />
	</g>
	<g
   id="g3"
   style="fill:#ffffff;fill-opacity:1">
		<path
   class="st2"
   d="M34.7,45.1c-0.8,0-1.5,0.7-1.5,1.5v4.8c0,0.8,0.7,1.5,1.5,1.5h0.2c0.8,0,2.2,0,3,0h0.9c0.8,0,1.5-0.7,1.5-1.5    v-4.8c0-0.8-0.7-1.5-1.5-1.5H34.7z"
   id="path3"
   style="fill:#ffffff;fill-opacity:1" />
	</g>
</g>
<g
   id="g9">
	<path
   class="st1"
   d="M123.6,39.1H119v9.2h-2.3v-9.2h-4.6v-2.3h11.5V39.1z"
   id="path4" />
	<path
   class="st1"
   d="M129.1,48.3h-2.3V36.8h2.3V48.3z"
   id="path5" />
	<path
   class="st1"
   d="M146.7,48.3h-2.3v-6.5l-3.1,6.5h-2.9l-3.1-6.5v6.5h-2.3V36.8h2.4l4.5,9.2l4.5-9.2h2.3V48.3z"
   id="path6" />
	<path
   class="st1"
   d="M152.9,48.3h-2.3V36.8h2.3V48.3z"
   id="path7" />
	<path
   class="st1"
   d="M168.2,48.3h-1.4l-7.7-7.8v7.8h-2.3V36.8h1.9l7.3,7.5v-7.5h2.3V48.3z"
   id="path8" />
	<path
   class="st1"
   d="M183.4,48.3h-9.2c-1.5,0-2.3-0.7-2.3-2.3v-6.9c0-1.3,0.8-2.3,2.3-2.3h8.8v2.3h-8.8V46h6.9v-2.3h-4.6v-2.3h6.9   V48.3z"
   id="path9" />
</g>
<g
   id="g14"
   style="fill:#ffffff;fill-opacity:1">
	<path
   class="st2"
   d="M90.5,32.3H70.4c-2.9,0-5-2.1-5-5v-5c0-2.9,2.1-5,5-5h15v-5h-20v-5h20c3,0,5,2.1,5,5V32.3z M85.5,27.3v-5h-15   v5H85.5z"
   id="path10"
   style="fill:#ffffff;fill-opacity:1" />
	<path
   class="st2"
   d="M98.8,32.3h-5.1V0h5.1V32.3z"
   id="path11"
   style="fill:#ffffff;fill-opacity:1" />
	<path
   class="st2"
   d="M127.3,27.4c0,2.7-2.4,4.9-5,4.9h-15v10.3h-5V7.2h20c3,0,5,2.1,5,5V27.4z M122.3,27.3V12.2h-15v15.1H122.3z"
   id="path12"
   style="fill:#ffffff;fill-opacity:1" />
	<path
   class="st2"
   d="M155.6,32.3h-5V12.2h-15v20.1h-5V0h5v7.2h15c3.4,0,5,1.7,5,5V32.3z"
   id="path13"
   style="fill:#ffffff;fill-opacity:1" />
	<path
   class="st2"
   d="M183.5,32.3h-20.1c-2.9,0-5-2.1-5-5v-5c0-2.9,2.1-5,5-5h15v-5h-20v-5h20c3,0,5,2.1,5,5V32.3z M178.4,27.3v-5   h-15v5H178.4z"
   id="path14"
   style="fill:#ffffff;fill-opacity:1" />
</g>
</svg>
