<?xml version="1.0" encoding="UTF-8" standalone="no"?>
<!-- Created with Inkscape (http://www.inkscape.org/) -->

<svg
   version="1.1"
   id="svg1"
   width="708.5733"
   height="249.85333"
   viewBox="0 0 708.5733 249.85333"
   xmlns="http://www.w3.org/2000/svg"
   xmlns:svg="http://www.w3.org/2000/svg">
  <defs
     id="defs1" />
  <g
     id="g1">
    <g
       id="group-R5">
      <path
         id="path2"
         d="m 81.2422,132.91 h -27.332 c -1.7305,0 -2.7266,-0.738 -2.9727,-2.469 L 45.957,102.359 c -0.4961,-2.23 -0.9843,-4.7184 -0.9843,-5.6988 0,-1.25 0.7421,-1.75 2.2343,-1.75 h 27.3282 c 9.6875,0 19.1289,8.1918 20.8593,17.8788 0.2657,1.25 0.75,3.723 0.75,5.223 0,8.449 -6.2109,14.898 -14.9023,14.898 z M 69.8086,68.8281 H 42.4844 c -1.7383,0 -2.7344,-0.7578 -2.9883,-2.5078 l -5.207,-30.289 c -0.5,-2.25 -0.9961,-4.7305 -0.9961,-5.7227 0,-1.25 0.7422,-1.7383 2.2304,-1.7383 h 27.3321 c 9.6875,0 19.1367,7.6992 20.8711,17.8985 0.25,1.7304 1.2461,5.9726 1.2461,7.9414 0,8.4414 -6.2032,14.4179 -15.1641,14.4179 z M 123.48,110.301 c -1.75,-9.192 -9.691,-19.8713 -18.148,-26.8205 -0.742,-0.7696 -1.23,-1.25 -1.23,-1.9922 0,-0.7383 0.738,-1.7266 1.23,-2.2383 4.727,-5.9609 8.199,-14.9102 8.199,-22.8398 0,-2.2383 -0.738,-5.9805 -1.23,-8.211 C 107.328,20.1211 86.4648,2.48047 58.1367,2.48047 H 2.23828 C 0.738281,2.48047 0,2.98828 0,4.23047 0,5.21094 0.996094,8.69141 1.49609,11.9219 L 26.8281,156.512 c 0.2578,1.75 1.2578,2.488 2.9883,2.488 H 85.707 c 24.606,0 39.012,-13.66 39.012,-35.77 0,-2.992 -0.742,-9.449 -1.239,-12.929"
         style="fill:#ffffff;fill-opacity:1;fill-rule:nonzero;stroke:none"
         transform="matrix(0.13333333,0,0,-0.13333333,0,249.85333)" />
      <path
         id="path3"
         d="m 226.82,132.91 h -22.351 c -1.742,0 -2.735,-0.738 -2.981,-2.469 l -5.222,-29.57 c -0.254,-1.9804 -0.743,-3.4726 -0.743,-4.2108 0,-1.25 0.743,-1.75 2.235,-1.75 h 22.359 c 12.172,0 21.602,10.4298 21.602,23.1018 0,8.449 -6.199,14.898 -14.899,14.898 z m 42.246,-22.609 c -2.25,-12.6604 -15.418,-27.3205 -26.086,-33.7815 -1.003,-0.7382 -1.496,-1 -1.496,-2.2304 0,-1.5 0.493,-3.7305 0.993,-6.4688 l 9.437,-55.6289 c 0.504,-3.24999 1.238,-5.97265 1.238,-7.21093 0,-1.49219 -0.988,-2.5 -2.976,-2.5 H 224.59 c -0.992,0 -1.738,0.75 -1.988,1.75 L 211.926,67.3203 c -0.262,1 -0.758,1.5078 -1.75,1.5078 h -17.141 c -1.742,0 -2.738,-0.7578 -2.984,-2.5078 L 179.371,4.98047 c -0.254,-1.75 -1.23,-2.5 -2.984,-2.5 h -23.598 c -1.496,0 -2.238,0.50781 -2.238,1.75 0,0.98047 0.996,4.71094 1.5,7.96093 l 25.332,144.3206 c 0.25,1.75 1.246,2.488 2.984,2.488 h 50.926 c 24.59,0 39.012,-13.66 39.012,-35.77 0,-4.218 -0.504,-8.699 -1.239,-12.929"
         style="fill:#ffffff;fill-opacity:1;fill-rule:nonzero;stroke:none"
         transform="matrix(0.13333333,0,0,-0.13333333,0,249.85333)" />
      <path
         id="path4"
         d="M 351.285,151.539 325.461,4.98047 c -0.266,-1.75 -1.246,-2.5 -3,-2.5 h -23.594 c -1.496,0 -2.242,0.50781 -2.242,1.75 0,0.98047 0.746,3.98047 1.5,7.96093 l 25.332,144.3206 c 0.258,1.75 1.254,2.488 2.996,2.488 h 23.59 c 1.488,0 2.242,-0.5 2.242,-1.75 0,-1.23 -0.5,-2.949 -1,-5.711"
         style="fill:#ffffff;fill-opacity:1;fill-rule:nonzero;stroke:none"
         transform="matrix(0.13333333,0,0,-0.13333333,0,249.85333)" />
      <path
         id="path5"
         d="M 478.738,150.07 476,135.41 c -0.238,-1.738 -0.984,-2.5 -2.727,-2.5 h -27.074 c -1.746,0 -2.726,-0.738 -2.992,-2.469 L 421.105,4.98047 c -0.25,-1.75 -1.246,-2.5 -2.984,-2.5 h -23.355 c -1.485,0 -2.239,0.50781 -2.239,1.75 0,0.98047 0.754,3.46875 1.5,7.69143 l 19.871,112.7971 c 0.493,2.73 0.997,5.211 0.997,6.461 0,1.25 -0.504,1.73 -1.993,1.73 H 385.82 c -1.488,0 -2.226,0.5 -2.226,1.762 0,0.957 0.504,3.219 0.996,5.707 l 2.73,16.133 c 0.25,1.75 1.246,2.488 2.977,2.488 h 87.457 c 1.48,0 2.23,-0.5 2.23,-1.75 0,-0.988 -0.75,-4.199 -1.246,-7.18"
         style="fill:#ffffff;fill-opacity:1;fill-rule:nonzero;stroke:none"
         transform="matrix(0.13333333,0,0,-0.13333333,0,249.85333)" />
      <path
         id="path6"
         d="M 542.844,151.539 517.008,4.98047 c -0.254,-1.75 -1.242,-2.5 -2.985,-2.5 h -23.597 c -1.496,0 -2.238,0.50781 -2.238,1.75 0,0.98047 0.742,3.98047 1.496,7.96093 L 515.02,156.512 c 0.25,1.75 1.246,2.488 2.988,2.488 h 23.59 c 1.5,0 2.242,-0.5 2.242,-1.75 0,-1.23 -0.504,-2.949 -0.996,-5.711"
         style="fill:#ffffff;fill-opacity:1;fill-rule:nonzero;stroke:none"
         transform="matrix(0.13333333,0,0,-0.13333333,0,249.85333)" />
      <path
         id="path7"
         d="m 676.5,129.93 -20.129,-9.192 c -1.98,-0.988 -3.734,-1.726 -4.469,-1.726 -1,0 -1.492,0.488 -1.734,1.726 -1.992,10.684 -8.195,14.672 -14.902,14.672 h -3.989 c -11.668,0 -21.121,-10.941 -21.121,-20.629 0,-10.672 12.688,-14.172 24.856,-20.3591 15.398,-7.7031 31.047,-17.6524 31.047,-40.25 C 666.059,23.1016 642.703,0 611.152,0 h -9.929 c -19.387,0 -29.067,7.44922 -34.532,18.1406 -2.253,4.211 -3.988,9.9375 -3.988,10.918 0,1 0.758,1.9922 2,2.4922 l 20.117,9.1875 c 1.996,0.9922 3.735,1.7305 4.473,1.7305 0.996,0 1.5,-0.4805 1.738,-1.7305 1.989,-10.6797 8.203,-14.6602 14.914,-14.6602 h 9.934 c 10.191,0 21.363,9.7032 21.363,21.1328 0,10.918 -11.429,15.6407 -22.601,21.3594 -16.153,8.1992 -33.547,17.3906 -33.547,39.9997 0,26.321 20.371,52.91 54.906,52.91 h 3.973 c 19.382,0 29.07,-7.449 34.543,-18.121 2.238,-4.23 3.968,-9.949 3.968,-10.929 0,-1.008 -0.75,-1.989 -1.984,-2.5"
         style="fill:#ffffff;fill-opacity:1;fill-rule:nonzero;stroke:none"
         transform="matrix(0.13333333,0,0,-0.13333333,0,249.85333)" />
      <path
         id="path8"
         d="M 835.746,151.539 809.91,4.98047 c -0.254,-1.75 -1.242,-2.5 -2.98,-2.5 h -23.36 c -1.484,0 -2.238,0.50781 -2.238,1.75 0,0.98047 0.754,3.46875 1.258,6.44923 l 8.93,50.6914 c 0.503,2.7305 0.996,4.7187 0.996,5.707 0,1.2422 -0.739,1.75 -2.227,1.75 H 744.07 c -1.73,0 -2.726,-0.7578 -2.976,-2.5078 L 730.41,4.98047 c -0.254,-1.75 -1.246,-2.5 -2.988,-2.5 h -23.598 c -1.5,0 -2.23,0.50781 -2.23,1.75 0,0.98047 0.73,3.46875 1.226,6.44923 l 25.602,145.8323 c 0.246,1.75 1.25,2.488 2.984,2.488 h 23.598 c 1.496,0 2.226,-0.5 2.226,-1.75 0,-0.988 -0.492,-2.949 -0.992,-5.711 l -8.695,-49.18 c -0.492,-2.23 -0.98,-4.9606 -0.98,-5.6988 0,-1.25 0.738,-1.75 2.226,-1.75 H 795 c 1.754,0 2.484,0.7304 2.738,2.4882 l 10.438,59.1136 c 0.242,1.75 1.238,2.488 2.972,2.488 h 23.356 c 1.492,0 2.234,-0.5 2.234,-1.75 0,-1.23 -0.5,-2.949 -0.992,-5.711"
         style="fill:#ffffff;fill-opacity:1;fill-rule:nonzero;stroke:none"
         transform="matrix(0.13333333,0,0,-0.13333333,0,249.85333)" />
      <path
         id="path9"
         d="m 2603.61,155.031 -57.88,-58.8904 c -0.97,-0.9804 -1.23,-1.7187 -1.23,-2.7187 0,-0.75 0.49,-1.7305 0.98,-2.9922 l 35.27,-79.9883 c 1.27,-2.99218 2.25,-4.72265 2.25,-5.46093 0,-1.49219 -1.25,-2.5 -3.22,-2.5 h -29.08 c -0.74,0 -1.49,0.50781 -1.73,1.23828 l -28.08,62.37105 c -0.49,0.9883 -1.24,1.7305 -1.98,1.7305 -0.76,0 -1.51,-0.5 -2.24,-1.2422 l -10.19,-11.1797 c -1.72,-1.7265 -2.23,-3.2187 -2.74,-5.9492 l -7.69,-44.46873 c -0.26,-1.75 -1.24,-2.5 -2.98,-2.5 h -23.61 c -1.49,0 -2.23,0.50781 -2.23,1.75 0,0.98047 0.49,2.73047 0.99,4.96875 l 25.83,147.31278 c 0.27,1.75 1.26,2.488 2.99,2.488 h 23.6 c 1.49,0 2.23,-0.5 2.23,-1.75 0,-0.988 -0.5,-3.219 -0.99,-5.711 l -8.2,-45.949 c -0.5,-2.238 -0.75,-3.988 -0.75,-4.981 0,-1.2301 0.75,-2.2184 1.76,-2.2184 0.73,0 1.48,0.5 2.47,1.4805 l 54.42,58.1489 c 0.47,0.48 1.49,0.98 2.24,0.98 h 28.55 c 1.73,0 2.49,-0.738 2.49,-1.75 0,-0.738 -0.5,-1.48 -1.25,-2.219"
         style="fill:#ffffff;fill-opacity:1;fill-rule:nonzero;stroke:none"
         transform="matrix(0.13333333,0,0,-0.13333333,0,249.85333)" />
      <path
         id="path10"
         d="m 2691.34,69.8203 -1.48,22.8516 c -0.27,3.9883 -0.5,11.4371 -0.5,14.9061 h -0.78 c -0.95,-3 -3.7,-9.6874 -5.45,-13.6561 l -12.15,-28.0938 c -1.26,-2.7265 -2.5,-4.957 -2.5,-6.1992 0,-1 0.73,-1.7305 2.21,-1.7305 h 18.17 c 1.98,0 3.22,1.4727 3.22,2.9727 0,1.9805 -0.49,5.9687 -0.74,8.9492 z m 34.03,-67.33983 h -25.09 c -1.26,0 -1.98,0.50781 -2.24,1.75 l -2.72,26.07813 c -0.26,1.2422 -0.99,1.4805 -2.23,1.4805 h -35.54 c -1.25,0 -2.26,-0.2383 -2.75,-1.4805 L 2642.65,4.23047 c -0.5,-1.24219 -1.5,-1.75 -2.75,-1.75 h -24.86 c -1.48,0 -2.23,0.75 -2.23,1.75 0,0.98047 1.25,3.21875 2.99,6.96093 l 70.3,146.0586 c 0.51,1.25 1.53,1.75 2.76,1.75 h 17.87 c 1.24,0 2,-0.5 2.24,-1.75 l 18.37,-143.0781 c 0.5,-3.4922 1,-7.72268 1,-8.96096 0,-1.72266 -1,-2.73047 -2.97,-2.73047"
         style="fill:#ffffff;fill-opacity:1;fill-rule:nonzero;stroke:none"
         transform="matrix(0.13333333,0,0,-0.13333333,0,249.85333)" />
      <path
         id="path11"
         d="m 2839.41,132.91 h -22.36 c -1.77,0 -2.75,-0.738 -3.01,-2.469 l -5.2,-29.57 c -0.27,-1.9804 -0.72,-3.4726 -0.72,-4.2108 0,-1.25 0.72,-1.75 2.19,-1.75 h 22.39 c 12.17,0 21.62,10.4298 21.62,23.1018 0,8.449 -6.23,14.898 -14.91,14.898 z m 42.24,-22.609 c -2.25,-12.6604 -15.41,-27.3205 -26.1,-33.7815 -1,-0.7382 -1.51,-1 -1.51,-2.2304 0,-1.5 0.51,-3.7305 1.02,-6.4688 l 9.42,-55.6289 c 0.51,-3.24999 1.27,-5.97265 1.27,-7.21093 0,-1.49219 -1,-2.5 -2.99,-2.5 h -25.6 c -0.99,0 -1.73,0.75 -1.98,1.75 L 2824.5,67.3203 c -0.26,1 -0.77,1.5078 -1.75,1.5078 h -17.11 c -1.77,0 -2.76,-0.7578 -3.01,-2.5078 L 2791.94,4.98047 c -0.26,-1.75 -1.23,-2.5 -2.97,-2.5 h -23.59 c -1.5,0 -2.24,0.50781 -2.24,1.75 0,0.98047 0.99,4.71094 1.48,7.96093 l 25.33,144.3206 c 0.27,1.75 1.26,2.488 2.99,2.488 h 50.94 c 24.59,0 39,-13.66 39,-35.77 0,-4.218 -0.5,-8.699 -1.23,-12.929"
         style="fill:#ffffff;fill-opacity:1;fill-rule:nonzero;stroke:none"
         transform="matrix(0.13333333,0,0,-0.13333333,0,249.85333)" />
      <path
         id="path12"
         d="m 3012.56,150.07 -2.76,-14.66 c -0.22,-1.738 -0.96,-2.5 -2.7,-2.5 h -27.08 c -1.74,0 -2.74,-0.738 -3,-2.469 L 2954.92,4.98047 c -0.26,-1.75 -1.25,-2.5 -2.98,-2.5 h -23.35 c -1.48,0 -2.25,0.50781 -2.25,1.75 0,0.98047 0.77,3.46875 1.5,7.69143 l 19.87,112.7971 c 0.48,2.73 0.99,5.211 0.99,6.461 0,1.25 -0.51,1.73 -1.97,1.73 h -27.1 c -1.48,0 -2.22,0.5 -2.22,1.762 0,0.957 0.49,3.219 1.02,5.707 l 2.69,16.133 c 0.25,1.75 1.26,2.488 2.99,2.488 h 87.45 c 1.49,0 2.25,-0.5 2.25,-1.75 0,-0.988 -0.76,-4.199 -1.25,-7.18"
         style="fill:#ffffff;fill-opacity:1;fill-rule:nonzero;stroke:none"
         transform="matrix(0.13333333,0,0,-0.13333333,0,249.85333)" />
      <path
         id="path13"
         d="M 3076.67,151.539 3050.81,4.98047 c -0.25,-1.75 -1.22,-2.5 -2.97,-2.5 h -23.59 c -1.53,0 -2.25,0.50781 -2.25,1.75 0,0.98047 0.72,3.98047 1.5,7.96093 l 25.33,144.3206 c 0.26,1.75 1.27,2.488 2.98,2.488 h 23.62 c 1.49,0 2.22,-0.5 2.22,-1.75 0,-1.23 -0.49,-2.949 -0.98,-5.711"
         style="fill:#ffffff;fill-opacity:1;fill-rule:nonzero;stroke:none"
         transform="matrix(0.13333333,0,0,-0.13333333,0,249.85333)" />
      <path
         id="path14"
         d="M 3230.43,151.539 3204.62,4.98047 c -0.27,-1.75 -1.27,-2.5 -3.01,-2.5 H 3181 c -1,0 -1.74,0.50781 -1.99,1.23828 l -30.3,80.99215 c -0.74,1.7383 -2.5,10.6993 -3,12.6875 l -0.98,-0.25 c -0.49,-5.9687 -5.75,-41.75 -9.21,-61.3671 l -5.46,-30.80083 c -0.24,-1.75 -1.24,-2.5 -2.98,-2.5 h -23.6 c -1.48,0 -2.24,0.50781 -2.24,1.75 0,0.98047 0.76,3.21875 1.25,6.21093 l 25.59,146.0706 c 0.25,1.75 1.26,2.488 3,2.488 h 20.83 c 0.99,0 1.77,-0.5 2.03,-1.238 l 30.03,-81.5003 c 0.75,-1.7304 2.51,-10.6719 3,-12.6601 l 1.25,0.2578 c 0.49,5.9609 5.7,41.7306 9.17,61.3396 l 5.47,31.313 c 0.25,1.75 1.27,2.488 3,2.488 h 23.34 c 1.48,0 2.22,-0.5 2.22,-1.75 0,-1.23 -0.49,-2.949 -0.99,-5.711"
         style="fill:#ffffff;fill-opacity:1;fill-rule:nonzero;stroke:none"
         transform="matrix(0.13333333,0,0,-0.13333333,0,249.85333)" />
      <path
         id="path15"
         d="m 3379.76,129.93 -20.12,-9.192 c -1.98,-0.988 -3.73,-1.726 -4.45,-1.726 -1.02,0 -1.51,0.488 -1.77,1.726 -1.99,10.684 -8.2,14.672 -14.9,14.672 h -16.4 c -9.68,0 -19.12,-8.211 -20.88,-17.898 l -12.16,-68.5823 c -0.52,-3.4609 -1.25,-6.4609 -1.25,-7.9297 0,-8.4609 6.46,-14.9219 15.17,-14.9219 h 12.16 c 9.94,0 18.87,7.9532 20.62,17.8828 l 1.51,7.961 c 0.22,1.4883 0.72,3.4765 0.72,4.4883 0,1.2304 -0.72,1.7187 -2.23,1.7187 h -23.34 c -1.52,0 -2.01,0.5 -2.01,1.7422 0,0.75 0.49,2.9805 0.75,4.4687 l 2.99,17.3985 c 0.26,1.7422 1.25,2.4805 2.98,2.4805 h 51.92 c 1.51,0 2.24,-0.4883 2.24,-1.7305 0,-1 -0.73,-3.9766 -1.23,-6.4688 l -5.72,-32.0586 C 3359.64,18.1406 3338.52,0 3310.43,0 h -12.17 c -24.83,0 -39.25,14.1719 -39.25,35.0313 0,2.9804 0.24,5.9687 0.73,8.9296 l 13.19,73.5511 c 4.73,25.847 25.6,43.968 53.92,43.968 h 16.4 c 19.38,0 29.05,-7.449 34.51,-18.121 2.25,-4.23 3.97,-9.949 3.97,-10.929 0,-1.008 -0.71,-1.989 -1.97,-2.5"
         style="fill:#ffffff;fill-opacity:1;fill-rule:nonzero;stroke:none"
         transform="matrix(0.13333333,0,0,-0.13333333,0,249.85333)" />
      <path
         id="path16"
         d="m 3590.94,129.93 -20.16,-9.192 c -1.97,-0.988 -3.7,-1.726 -4.47,-1.726 -0.99,0 -1.49,0.488 -1.71,1.726 -2,10.684 -8.22,14.672 -14.9,14.672 h -12.43 c -9.71,0 -19.15,-8.211 -20.88,-17.898 L 3504.2,48.9297 C 3503.49,45.1992 3503,42.7188 3503,41 c 0,-8.4609 6.44,-14.9219 15.12,-14.9219 h 12.17 c 6.7,0 13.68,3.9805 20.13,14.6602 0.76,1.25 1.47,1.7305 2.26,1.7305 0.98,0 2.21,-0.9688 3.7,-1.7305 l 16.66,-9.4375 c 0.99,-0.4922 1.48,-0.9922 1.48,-1.9805 0,-1 -1.74,-3.7305 -4.72,-7.4609 C 3560.36,9.42969 3547.44,0 3525.58,0 h -12.16 c -24.87,0 -39.25,14.1719 -39.25,35.0313 0,2.9804 0.22,5.9687 0.72,8.9296 l 13.19,73.5511 c 4.7,25.847 25.57,43.968 53.88,43.968 h 12.44 c 19.38,0 29.08,-7.449 34.55,-18.121 2.21,-4.23 3.95,-9.949 3.95,-10.929 0,-1.008 -0.74,-1.989 -1.96,-2.5"
         style="fill:#ffffff;fill-opacity:1;fill-rule:nonzero;stroke:none"
         transform="matrix(0.13333333,0,0,-0.13333333,0,249.85333)" />
      <path
         id="path17"
         d="M 3743.97,151.539 3718.14,4.98047 c -0.27,-1.75 -1.25,-2.5 -2.98,-2.5 h -23.36 c -1.5,0 -2.25,0.50781 -2.25,1.75 0,0.98047 0.75,3.46875 1.26,6.44923 l 8.95,50.6914 c 0.48,2.7305 0.99,4.7187 0.99,5.707 0,1.2422 -0.78,1.75 -2.25,1.75 h -46.22 c -1.72,0 -2.72,-0.7578 -2.98,-2.5078 L 3638.63,4.98047 c -0.26,-1.75 -1.26,-2.5 -2.99,-2.5 h -23.6 c -1.5,0 -2.24,0.50781 -2.24,1.75 0,0.98047 0.74,3.46875 1.24,6.44923 l 25.6,145.8323 c 0.23,1.75 1.22,2.488 2.98,2.488 h 23.59 c 1.5,0 2.26,-0.5 2.26,-1.75 0,-0.988 -0.52,-2.949 -1.02,-5.711 l -8.7,-49.18 c -0.49,-2.23 -0.98,-4.9606 -0.98,-5.6988 0,-1.25 0.76,-1.75 2.25,-1.75 h 46.18 c 1.74,0 2.51,0.7304 2.75,2.4882 l 10.45,59.1136 c 0.23,1.75 1.22,2.488 2.95,2.488 h 23.36 c 1.5,0 2.24,-0.5 2.24,-1.75 0,-1.23 -0.49,-2.949 -0.98,-5.711"
         style="fill:#ffffff;fill-opacity:1;fill-rule:nonzero;stroke:none"
         transform="matrix(0.13333333,0,0,-0.13333333,0,249.85333)" />
      <path
         id="path18"
         d="m 3831.65,69.8203 -1.49,22.8516 c -0.24,3.9883 -0.49,11.4371 -0.49,14.9061 h -0.73 c -1,-3 -3.72,-9.6874 -5.48,-13.6561 l -12.19,-28.0938 c -1.21,-2.7265 -2.47,-4.957 -2.47,-6.1992 0,-1 0.76,-1.7305 2.25,-1.7305 h 18.11 c 1.99,0 3.24,1.4727 3.24,2.9727 0,1.9805 -0.49,5.9687 -0.75,8.9492 z m 34.04,-67.33983 h -25.08 c -1.23,0 -2,0.50781 -2.24,1.75 l -2.73,26.07813 c -0.25,1.2422 -1.01,1.4805 -2.23,1.4805 h -35.55 c -1.22,0 -2.22,-0.2383 -2.71,-1.4805 L 3782.96,4.23047 c -0.51,-1.24219 -1.49,-1.75 -2.74,-1.75 h -24.83 c -1.48,0 -2.25,0.75 -2.25,1.75 0,0.98047 1.26,3.21875 2.99,6.96093 l 70.32,146.0586 c 0.49,1.25 1.49,1.75 2.71,1.75 h 17.9 c 1.25,0 1.98,-0.5 2.25,-1.75 l 18.38,-143.0781 c 0.5,-3.4922 0.99,-7.72268 0.99,-8.96096 0,-1.72266 -0.99,-2.73047 -2.99,-2.73047"
         style="fill:#ffffff;fill-opacity:1;fill-rule:nonzero;stroke:none"
         transform="matrix(0.13333333,0,0,-0.13333333,0,249.85333)" />
      <path
         id="path19"
         d="M 4053.49,147.578 4028.43,4.98047 c -0.26,-1.75 -1.24,-2.5 -2.99,-2.5 h -23.36 c -1.48,0 -2.23,0.50781 -2.23,1.75 0,0.98047 0.5,2.48047 0.99,4.96875 l 3.73,21.85158 c 3.24,19.6211 11.92,54.168 13.4,60.1289 l -0.99,0.2422 c -0.98,-1.9727 -5.94,-13.4102 -9.93,-19.8711 l -28.82,-46.2227 c -0.73,-0.9883 -1.48,-1.4687 -2.47,-1.4687 h -12.7 c -0.97,0 -1.73,0.4804 -1.96,1.4687 l -12.41,46.2227 c -1.25,4.9687 -2.75,15.3984 -2.98,19.8711 l -0.99,-0.2422 c -0.51,-5.9609 -4.48,-40.5078 -7.96,-60.1289 l -4.47,-26.07033 c -0.27,-1.75 -1.27,-2.5 -3.01,-2.5 h -23.6 c -1.47,0 -2.21,0.50781 -2.21,1.75 0,0.98047 0.74,3.46875 1.23,6.21093 l 25.59,146.0706 c 0.24,1.75 1.24,2.488 2.98,2.488 h 20.88 c 1,0 1.72,-0.5 1.98,-1.488 l 19.11,-79.0003 c 0.52,-2.4922 1.26,-8.2031 1.26,-11.1914 h 0.74 c 0.76,2 4.48,9.4492 5.47,11.1914 l 46.96,79.0003 c 0.5,0.988 1.49,1.488 2.49,1.488 h 20.86 c 1.49,0 2.22,-0.5 2.22,-1.75 0,-1.23 -0.73,-4.719 -1.75,-9.672"
         style="fill:#ffffff;fill-opacity:1;fill-rule:nonzero;stroke:none"
         transform="matrix(0.13333333,0,0,-0.13333333,0,249.85333)" />
      <path
         id="path20"
         d="m 4158.12,132.91 h -22.38 c -1.73,0 -2.71,-0.738 -2.99,-2.469 l -5.18,-29.57 c -0.27,-1.7421 -0.77,-3.4726 -0.77,-4.2108 0,-1.25 0.77,-1.75 2.24,-1.75 h 22.38 c 12.15,0 21.6,10.9178 21.6,23.1018 0,8.449 -6.2,14.898 -14.9,14.898 z m -11.45,-64.0819 h -22.35 c -1.72,0 -2.73,-0.7578 -2.98,-2.5078 L 4110.65,4.98047 c -0.24,-1.75 -1.25,-2.5 -2.99,-2.5 h -23.6 c -1.47,0 -2.22,0.50781 -2.22,1.75 0,0.98047 0.75,2.98828 1.24,6.44923 l 25.58,145.8323 c 0.26,1.75 1.25,2.488 2.99,2.488 h 50.93 c 24.58,0 39,-13.898 39,-36.031 0,-30.5393 -23.87,-54.1409 -54.91,-54.1409"
         style="fill:#ffffff;fill-opacity:1;fill-rule:nonzero;stroke:none"
         transform="matrix(0.13333333,0,0,-0.13333333,0,249.85333)" />
      <path
         id="path21"
         d="M 4276.59,151.539 4250.76,4.98047 c -0.23,-1.75 -1.24,-2.5 -2.98,-2.5 h -23.6 c -1.47,0 -2.24,0.50781 -2.24,1.75 0,0.98047 0.77,3.98047 1.53,7.96093 l 25.3,144.3206 c 0.26,1.75 1.27,2.488 3.01,2.488 h 23.59 c 1.48,0 2.22,-0.5 2.22,-1.75 0,-1.23 -0.49,-2.949 -1,-5.711"
         style="fill:#ffffff;fill-opacity:1;fill-rule:nonzero;stroke:none"
         transform="matrix(0.13333333,0,0,-0.13333333,0,249.85333)" />
      <path
         id="path22"
         d="m 4380.22,135.41 h -12.16 c -9.72,0 -19.16,-8.211 -20.89,-17.898 l -12.19,-68.5823 c -0.5,-2.4609 -1.2,-6.4609 -1.2,-7.9297 0,-8.4609 6.44,-14.9219 15.12,-14.9219 h 12.17 c 9.95,0 18.89,7.9532 20.62,17.8828 l 11.94,67.3591 c 0.76,3.711 1.49,7.692 1.49,9.418 0,8.453 -5.96,14.672 -14.9,14.672 z m 43.23,-17.898 -13.18,-73.5511 C 4405.55,18.1406 4384.44,0 4356.36,0 h -12.15 c -24.86,0 -39.26,14.1719 -39.26,35.0313 0,2.9804 0.22,5.707 0.72,8.9296 l 13.19,73.5511 c 4.7,25.847 25.6,43.968 53.88,43.968 h 12.19 c 24.86,0 39.26,-13.902 39.26,-35.019 0,-2.731 -0.25,-5.961 -0.74,-8.949"
         style="fill:#ffffff;fill-opacity:1;fill-rule:nonzero;stroke:none"
         transform="matrix(0.13333333,0,0,-0.13333333,0,249.85333)" />
      <path
         id="path23"
         d="M 4580.7,151.539 4554.87,4.98047 c -0.26,-1.75 -1.25,-2.5 -2.98,-2.5 h -20.63 c -1,0 -1.72,0.50781 -1.98,1.23828 l -30.31,80.99215 c -0.74,1.7383 -2.5,10.6993 -2.98,12.6875 l -0.99,-0.25 c -0.51,-5.9687 -5.71,-41.75 -9.2,-61.3671 l -5.46,-30.80083 c -0.25,-1.75 -1.25,-2.5 -2.97,-2.5 h -23.63 c -1.48,0 -2.23,0.50781 -2.23,1.75 0,0.98047 0.75,3.21875 1.24,6.21093 l 25.61,146.0706 c 0.21,1.75 1.22,2.488 2.98,2.488 h 20.88 c 0.98,0 1.72,-0.5 1.96,-1.238 l 30.07,-81.5003 c 0.75,-1.7304 2.48,-10.6719 2.98,-12.6601 l 1.24,0.2578 c 0.5,5.9609 5.7,41.7306 9.2,61.3396 l 5.46,31.313 c 0.24,1.75 1.25,2.488 2.97,2.488 h 23.34 c 1.52,0 2.24,-0.5 2.24,-1.75 0,-1.23 -0.48,-2.949 -0.98,-5.711"
         style="fill:#ffffff;fill-opacity:1;fill-rule:nonzero;stroke:none"
         transform="matrix(0.13333333,0,0,-0.13333333,0,249.85333)" />
      <path
         id="path24"
         d="m 4714.62,129.93 -20.12,-9.192 c -1.99,-0.988 -3.74,-1.726 -4.47,-1.726 -0.99,0 -1.51,0.488 -1.79,1.726 -1.96,10.684 -8.17,14.672 -14.87,14.672 h -3.98 c -11.69,0 -21.14,-10.941 -21.14,-20.629 0,-10.672 12.69,-14.172 24.86,-20.3591 15.41,-7.7031 31.05,-17.6524 31.05,-40.25 C 4704.16,23.1016 4680.82,0 4649.25,0 h -9.93 c -19.39,0 -29.06,7.44922 -34.51,18.1406 -2.26,4.211 -3.98,9.9375 -3.98,10.918 0,1 0.73,1.9922 1.98,2.4922 l 20.11,9.1875 c 2,0.9922 3.73,1.7305 4.47,1.7305 0.99,0 1.49,-0.4805 1.76,-1.7305 1.98,-10.6797 8.18,-14.6602 14.91,-14.6602 h 9.92 c 10.21,0 21.38,9.7032 21.38,21.1328 0,10.918 -11.43,15.6407 -22.64,21.3594 -16.13,8.1992 -33.5,17.3906 -33.5,39.9997 0,26.321 20.36,52.91 54.88,52.91 h 4 c 19.35,0 29.06,-7.449 34.53,-18.121 2.21,-4.23 3.94,-9.949 3.94,-10.929 0,-1.008 -0.74,-1.989 -1.95,-2.5"
         style="fill:#ffffff;fill-opacity:1;fill-rule:nonzero;stroke:none"
         transform="matrix(0.13333333,0,0,-0.13333333,0,249.85333)" />
      <path
         id="path25"
         d="M 4873.85,151.539 4848.01,4.98047 c -0.24,-1.75 -1.22,-2.5 -2.95,-2.5 h -23.39 c -1.48,0 -2.24,0.50781 -2.24,1.75 0,0.98047 0.76,3.46875 1.24,6.44923 l 8.98,50.6914 c 0.47,2.7305 0.97,4.7187 0.97,5.707 0,1.2422 -0.74,1.75 -2.23,1.75 h -46.22 c -1.73,0 -2.74,-0.7578 -2.96,-2.5078 L 4768.5,4.98047 c -0.23,-1.75 -1.21,-2.5 -2.93,-2.5 h -23.64 c -1.48,0 -2.24,0.50781 -2.24,1.75 0,0.98047 0.76,3.46875 1.26,6.44923 l 25.6,145.8323 c 0.2,1.75 1.22,2.488 2.95,2.488 h 23.62 c 1.48,0 2.22,-0.5 2.22,-1.75 0,-0.988 -0.47,-2.949 -0.98,-5.711 l -8.71,-49.18 c -0.49,-2.23 -0.98,-4.9606 -0.98,-5.6988 0,-1.25 0.73,-1.75 2.22,-1.75 h 46.24 c 1.72,0 2.46,0.7304 2.73,2.4882 l 10.4,59.1136 c 0.26,1.75 1.26,2.488 3,2.488 h 23.35 c 1.51,0 2.23,-0.5 2.23,-1.75 0,-1.23 -0.47,-2.949 -0.99,-5.711"
         style="fill:#ffffff;fill-opacity:1;fill-rule:nonzero;stroke:none"
         transform="matrix(0.13333333,0,0,-0.13333333,0,249.85333)" />
      <path
         id="path26"
         d="M 4953.09,151.539 4927.25,4.98047 c -0.25,-1.75 -1.22,-2.5 -2.96,-2.5 h -23.58 c -1.52,0 -2.25,0.50781 -2.25,1.75 0,0.98047 0.73,3.98047 1.45,7.96093 l 25.36,144.3206 c 0.25,1.75 1.24,2.488 2.97,2.488 h 23.65 c 1.47,0 2.2,-0.5 2.2,-1.75 0,-1.23 -0.49,-2.949 -1,-5.711"
         style="fill:#ffffff;fill-opacity:1;fill-rule:nonzero;stroke:none"
         transform="matrix(0.13333333,0,0,-0.13333333,0,249.85333)" />
      <path
         id="path27"
         d="m 5054,132.91 h -22.38 c -1.72,0 -2.72,-0.738 -2.98,-2.469 l -5.22,-29.57 c -0.24,-1.7421 -0.71,-3.4726 -0.71,-4.2108 0,-1.25 0.71,-1.75 2.21,-1.75 h 22.36 c 12.18,0 21.6,10.9178 21.6,23.1018 0,8.449 -6.18,14.898 -14.88,14.898 z m -11.44,-64.0819 h -22.36 c -1.77,0 -2.76,-0.7578 -2.96,-2.5078 L 5006.51,4.98047 c -0.21,-1.75 -1.21,-2.5 -2.96,-2.5 h -23.58 c -1.53,0 -2.25,0.50781 -2.25,1.75 0,0.98047 0.72,2.98828 1.25,6.44923 l 25.59,145.8323 c 0.23,1.75 1.21,2.488 2.94,2.488 h 50.98 c 24.59,0 38.98,-13.898 38.98,-36.031 0,-30.5393 -23.84,-54.1409 -54.9,-54.1409"
         style="fill:#ffffff;fill-opacity:1;fill-rule:nonzero;stroke:none"
         transform="matrix(0.13333333,0,0,-0.13333333,0,249.85333)" />
      <path
         id="path28"
         d="M 1054.36,150.309 1035.48,43.9609 C 1031.01,18.1406 1009.65,0 981.566,0 h -12.168 c -24.851,0 -39.25,14.1719 -39.25,35.0313 0,2.9804 0.239,5.707 0.743,8.9296 l 19.875,112.5511 c 0.246,1.75 1.242,2.488 2.98,2.488 h 23.356 c 1.488,0 2.23,-0.5 2.23,-1.75 0,-1.23 -0.5,-3.469 -0.98,-5.711 L 960.211,48.9297 c -0.508,-2.7188 -1.246,-5.9492 -1.246,-7.9297 0,-8.4609 6.465,-14.9219 15.156,-14.9219 h 12.172 c 9.934,0 18.887,7.9532 20.617,17.8828 l 19.88,112.5511 c 0.25,1.75 1.24,2.488 2.99,2.488 h 23.59 c 1.49,0 2.24,-0.5 2.24,-1.75 0,-1.23 -0.75,-3.469 -1.25,-6.941"
         style="fill:#ffffff;fill-opacity:1;fill-rule:nonzero;stroke:none"
         transform="matrix(0.13333333,0,0,-0.13333333,0,249.85333)" />
      <path
         id="path29"
         d="M 1207.66,151.539 1181.83,4.98047 c -0.26,-1.75 -1.25,-2.5 -2.99,-2.5 h -20.62 c -0.98,0 -1.74,0.50781 -1.98,1.23828 l -30.32,80.99215 c -0.74,1.7383 -2.47,10.6993 -2.97,12.6875 l -1,-0.25 c -0.49,-5.9687 -5.71,-41.75 -9.2,-61.3671 L 1107.3,4.98047 c -0.26,-1.75 -1.25,-2.5 -2.99,-2.5 h -23.6 c -1.49,0 -2.24,0.50781 -2.24,1.75 0,0.98047 0.75,3.21875 1.25,6.21093 l 25.59,146.0706 c 0.25,1.75 1.24,2.488 2.98,2.488 h 20.87 c 0.99,0 1.73,-0.5 1.99,-1.238 l 30.06,-81.5003 c 0.74,-1.7304 2.47,-10.6719 2.96,-12.6601 l 1.26,0.2578 c 0.5,5.9609 5.71,41.7306 9.18,61.3396 l 5.48,31.313 c 0.24,1.75 1.24,2.488 2.98,2.488 h 23.35 c 1.49,0 2.24,-0.5 2.24,-1.75 0,-1.23 -0.5,-2.949 -1,-5.711"
         style="fill:#ffffff;fill-opacity:1;fill-rule:nonzero;stroke:none"
         transform="matrix(0.13333333,0,0,-0.13333333,0,249.85333)" />
      <path
         id="path30"
         d="M 1286.91,151.539 1261.08,4.98047 c -0.25,-1.75 -1.25,-2.5 -2.99,-2.5 h -23.6 c -1.5,0 -2.24,0.50781 -2.24,1.75 0,0.98047 0.74,3.98047 1.5,7.96093 l 25.34,144.3206 c 0.25,1.75 1.25,2.488 2.99,2.488 h 23.59 c 1.5,0 2.24,-0.5 2.24,-1.75 0,-1.23 -0.5,-2.949 -1,-5.711"
         style="fill:#ffffff;fill-opacity:1;fill-rule:nonzero;stroke:none"
         transform="matrix(0.13333333,0,0,-0.13333333,0,249.85333)" />
      <path
         id="path31"
         d="M 1439.2,151.051 1368.39,4.23047 c -0.5,-1.24219 -1.5,-1.75 -2.73,-1.75 h -17.89 c -1.24,0 -1.99,0.50781 -2.24,1.75 L 1327.4,146.34 c -0.75,4.969 -1.24,8.441 -1.24,9.922 0,1.758 0.98,2.738 2.98,2.738 h 24.84 c 1.24,0 2.24,-0.5 2.24,-1.75 l 8.69,-89.4297 c 0.25,-2.7109 0.51,-8.1914 0.51,-11.4101 h 1.23 c 0.74,1.9882 3.73,9.1796 4.47,10.9101 l 40.5,89.9297 c 0.49,1.25 1.49,1.75 2.73,1.75 h 25.08 c 1.5,0 2.5,-0.738 2.5,-1.75 0,-0.988 -1.24,-2.949 -2.73,-6.199"
         style="fill:#ffffff;fill-opacity:1;fill-rule:nonzero;stroke:none"
         transform="matrix(0.13333333,0,0,-0.13333333,0,249.85333)" />
      <path
         id="path32"
         d="m 1659.81,132.91 h -22.36 c -1.73,0 -2.73,-0.738 -2.99,-2.469 l -5.2,-29.57 c -0.26,-1.9804 -0.75,-3.4726 -0.75,-4.2108 0,-1.25 0.75,-1.75 2.24,-1.75 h 22.36 c 12.17,0 21.6,10.4298 21.6,23.1018 0,8.449 -6.2,14.898 -14.9,14.898 z m 42.24,-22.609 c -2.24,-12.6604 -15.41,-27.3205 -26.08,-33.7815 -1,-0.7382 -1.49,-1 -1.49,-2.2304 0,-1.5 0.49,-3.7305 0.99,-6.4688 l 9.43,-55.6289 c 0.5,-3.24999 1.25,-5.97265 1.25,-7.21093 0,-1.49219 -0.99,-2.5 -2.98,-2.5 h -25.59 c -1,0 -1.74,0.75 -1.99,1.75 l -10.68,63.08983 c -0.26,1 -0.75,1.5078 -1.76,1.5078 h -17.13 c -1.73,0 -2.73,-0.7578 -2.97,-2.5078 L 1612.36,4.98047 c -0.25,-1.75 -1.23,-2.5 -2.98,-2.5 h -23.61 c -1.49,0 -2.23,0.50781 -2.23,1.75 0,0.98047 1,4.71094 1.49,7.96093 l 25.34,144.3206 c 0.26,1.75 1.25,2.488 2.98,2.488 h 50.93 c 24.6,0 39.01,-13.66 39.01,-35.77 0,-4.218 -0.5,-8.699 -1.24,-12.929"
         style="fill:#ffffff;fill-opacity:1;fill-rule:nonzero;stroke:none"
         transform="matrix(0.13333333,0,0,-0.13333333,0,249.85333)" />
      <path
         id="path33"
         d="m 1837.93,129.93 -20.13,-9.192 c -1.97,-0.988 -3.73,-1.726 -4.46,-1.726 -1,0 -1.49,0.488 -1.74,1.726 -2,10.684 -8.2,14.672 -14.91,14.672 h -3.98 c -11.66,0 -21.11,-10.941 -21.11,-20.629 0,-10.672 12.67,-14.172 24.84,-20.3591 15.41,-7.7031 31.06,-17.6524 31.06,-40.25 C 1827.5,23.1016 1804.14,0 1772.59,0 h -9.94 c -19.38,0 -29.06,7.44922 -34.52,18.1406 -2.24,4.211 -3.98,9.9375 -3.98,10.918 0,1 0.75,1.9922 1.99,2.4922 l 20.12,9.1875 c 1.99,0.9922 3.73,1.7305 4.48,1.7305 0.98,0 1.48,-0.4805 1.73,-1.7305 1.99,-10.6797 8.19,-14.6602 14.91,-14.6602 h 9.93 c 10.2,0 21.37,9.7032 21.37,21.1328 0,10.918 -11.43,15.6407 -22.61,21.3594 -16.15,8.1992 -33.54,17.3906 -33.54,39.9997 0,26.321 20.37,52.91 54.91,52.91 h 3.97 c 19.39,0 29.06,-7.449 34.55,-18.121 2.22,-4.23 3.96,-9.949 3.96,-10.929 0,-1.008 -0.75,-1.989 -1.99,-2.5"
         style="fill:#ffffff;fill-opacity:1;fill-rule:nonzero;stroke:none"
         transform="matrix(0.13333333,0,0,-0.13333333,0,249.85333)" />
      <path
         id="path34"
         d="M 1917.69,151.539 1891.85,4.98047 c -0.25,-1.75 -1.23,-2.5 -2.98,-2.5 h -23.6 c -1.5,0 -2.24,0.50781 -2.24,1.75 0,0.98047 0.74,3.98047 1.5,7.96093 l 25.33,144.3206 c 0.25,1.75 1.25,2.488 2.99,2.488 h 23.6 c 1.48,0 2.24,-0.5 2.24,-1.75 0,-1.23 -0.51,-2.949 -1,-5.711"
         style="fill:#ffffff;fill-opacity:1;fill-rule:nonzero;stroke:none"
         transform="matrix(0.13333333,0,0,-0.13333333,0,249.85333)" />
      <path
         id="path35"
         d="m 2045.13,150.07 -2.73,-14.66 c -0.25,-1.738 -0.99,-2.5 -2.75,-2.5 h -27.06 c -1.75,0 -2.73,-0.738 -2.99,-2.469 L 1987.5,4.98047 c -0.25,-1.75 -1.25,-2.5 -2.99,-2.5 h -23.36 c -1.48,0 -2.23,0.50781 -2.23,1.75 0,0.98047 0.75,3.46875 1.49,7.69143 l 19.87,112.7971 c 0.5,2.73 1,5.211 1,6.461 0,1.25 -0.5,1.73 -1.99,1.73 h -27.07 c -1.5,0 -2.23,0.5 -2.23,1.762 0,0.957 0.49,3.219 0.99,5.707 l 2.73,16.133 c 0.25,1.75 1.23,2.488 2.97,2.488 h 87.47 c 1.47,0 2.23,-0.5 2.23,-1.75 0,-0.988 -0.76,-4.199 -1.25,-7.18"
         style="fill:#ffffff;fill-opacity:1;fill-rule:nonzero;stroke:none"
         transform="matrix(0.13333333,0,0,-0.13333333,0,249.85333)" />
      <path
         id="path36"
         d="M 2109.23,151.539 2083.39,4.98047 c -0.25,-1.75 -1.23,-2.5 -2.98,-2.5 h -23.6 c -1.49,0 -2.24,0.50781 -2.24,1.75 0,0.98047 0.75,3.98047 1.49,7.96093 l 25.34,144.3206 c 0.26,1.75 1.25,2.488 2.99,2.488 h 23.59 c 1.5,0 2.24,-0.5 2.24,-1.75 0,-1.23 -0.49,-2.949 -0.99,-5.711"
         style="fill:#ffffff;fill-opacity:1;fill-rule:nonzero;stroke:none"
         transform="matrix(0.13333333,0,0,-0.13333333,0,249.85333)" />
      <path
         id="path37"
         d="m 2378.04,129.93 -20.13,-9.192 c -1.98,-0.988 -3.73,-1.726 -4.47,-1.726 -0.99,0 -1.5,0.488 -1.73,1.726 -1.99,10.684 -8.2,14.672 -14.91,14.672 h -3.99 c -11.66,0 -21.11,-10.941 -21.11,-20.629 0,-10.672 12.68,-14.172 24.85,-20.3591 15.39,-7.7031 31.05,-17.6524 31.05,-40.25 C 2367.6,23.1016 2344.25,0 2312.69,0 h -9.94 c -19.37,0 -29.05,7.44922 -34.52,18.1406 -2.25,4.211 -3.98,9.9375 -3.98,10.918 0,1 0.76,1.9922 1.99,2.4922 l 20.12,9.1875 c 2,0.9922 3.74,1.7305 4.47,1.7305 1,0 1.49,-0.4805 1.74,-1.7305 1.99,-10.6797 8.19,-14.6602 14.91,-14.6602 h 9.94 c 10.19,0 21.37,9.7032 21.37,21.1328 0,10.918 -11.44,15.6407 -22.62,21.3594 -16.14,8.1992 -33.53,17.3906 -33.53,39.9997 0,26.321 20.36,52.91 54.91,52.91 h 3.96 c 19.39,0 29.08,-7.449 34.54,-18.121 2.23,-4.23 3.98,-9.949 3.98,-10.929 0,-1.008 -0.76,-1.989 -1.99,-2.5"
         style="fill:#ffffff;fill-opacity:1;fill-rule:nonzero;stroke:none"
         transform="matrix(0.13333333,0,0,-0.13333333,0,249.85333)" />
      <path
         id="path38"
         d="m 1489.57,66.4492 h 51.5 c 1.48,0 2.41,0.5117 2.85,1.7305 0.35,1.0117 0.73,4.2422 1.29,7.2187 l 2.43,14.6524 c 0.37,1.75 -0.11,2.5078 -1.86,2.5078 h -51.5 c -1.74,0 -2.45,0.7305 -2.11,2.4531 l 6.25,35.4293 c 0.26,1.731 1.24,2.469 2.99,2.469 h 63.4 c 1.76,0 2.49,0.762 2.74,2.5 l 2.73,14.66 c 0.51,2.981 1.25,6.192 1.25,7.18 0,1.25 -0.74,1.75 -2.22,1.75 h -68.4 -20.71 -2.89 c -1.73,0 -2.73,-0.738 -2.98,-2.488 L 1448.99,12.1914 c -0.76,-3.98046 -1.49,-6.98046 -1.49,-7.96093 0,-1.24219 0.73,-1.75 2.24,-1.75 h 2.87 20.72 68.37 c 1.49,0 2.41,0.50781 2.85,1.75 0.35,0.98047 0.75,4.21875 1.29,7.19143 l 2.43,14.6562 c 0.36,1.7305 -0.1,2.4922 -1.85,2.4922 H 1483 c -1.73,0 -2.43,0.75 -2.1,2.4414 l 5.89,33.3477 c 0.35,1.3789 1.21,2.0898 2.78,2.0898"
         style="fill:#ffffff;fill-opacity:1;fill-rule:nonzero;stroke:none"
         transform="matrix(0.13333333,0,0,-0.13333333,0,249.85333)" />
      <path
         id="path39"
         d="m 2173.69,66.4492 h 51.5 c 1.48,0 2.41,0.5117 2.84,1.7305 0.37,1.0117 0.74,4.2422 1.29,7.2187 l 2.44,14.6524 c 0.37,1.75 -0.11,2.5078 -1.86,2.5078 h -51.5 c -1.73,0 -2.45,0.7305 -2.12,2.4531 l 6.26,35.4293 c 0.25,1.731 1.23,2.469 2.99,2.469 h 63.41 c 1.75,0 2.49,0.762 2.73,2.5 l 2.73,14.66 c 0.5,2.981 1.25,6.192 1.25,7.18 0,1.25 -0.75,1.75 -2.23,1.75 h -68.39 -20.72 -2.88 c -1.74,0 -2.73,-0.738 -2.99,-2.488 L 2133.11,12.1914 c -0.76,-3.98046 -1.5,-6.98046 -1.5,-7.96093 0,-1.24219 0.74,-1.75 2.24,-1.75 h 2.87 20.73 68.38 c 1.47,0 2.4,0.50781 2.84,1.75 0.34,0.98047 0.75,4.21875 1.3,7.19143 l 2.42,14.6562 c 0.37,1.7305 -0.1,2.4922 -1.86,2.4922 h -63.4 c -1.75,0 -2.45,0.75 -2.11,2.4414 l 5.89,33.3477 c 0.35,1.3789 1.2,2.0898 2.78,2.0898"
         style="fill:#ffffff;fill-opacity:1;fill-rule:nonzero;stroke:none"
         transform="matrix(0.13333333,0,0,-0.13333333,0,249.85333)" />
      <path
         id="path40"
         d="m 3512.63,1202.41 c -9.73,-9.73 -9.73,-17.05 -4.84,-26.77 l 428.2,-832.109 c 7.3,-17.011 0,-36.492 -26.76,-36.492 h -469.55 c -17.05,0 -29.22,4.883 -36.52,19.481 l -236,508.511 c -7.31,17.028 -21.89,14.578 -38.93,0 l -38.92,-36.5 -82.74,-467.14 c -2.42,-19.469 -17.02,-24.352 -29.16,-24.352 H 2617.3 c -12.17,0 -19.5,4.883 -17.06,24.352 l 262.78,1486.579 c 2.44,19.46 12.16,24.32 24.33,24.32 h 360.1 c 7.3,0 24.33,-4.86 21.89,-24.32 l -60.82,-338.2 c -9.74,-55.96 -31.63,-126.51 -51.12,-165.43 l 515.83,510.93 c 9.72,9.72 24.31,17.02 36.49,17.02 h 435.52 c 29.2,0 31.65,-19.46 9.72,-38.93 l -642.33,-600.95"
         style="fill:#ffffff;fill-opacity:1;fill-rule:nonzero;stroke:none"
         transform="matrix(0.13333333,0,0,-0.13333333,0,249.85333)" />
      <path
         id="path41"
         d="M 961.652,1484.63 H 696.43 c -21.887,0 -29.168,-9.73 -34.075,-26.76 l -34.039,-192.2 c -2.421,-17.04 2.426,-26.77 26.766,-26.77 h 265.191 c 82.727,0 128.947,38.92 138.697,97.31 l 7.29,46.25 c 9.72,58.4 -21.89,102.17 -104.608,102.17 z M 864.313,929.891 H 599.125 c -21.918,0 -31.613,-9.715 -34.066,-26.746 L 528.566,691.461 c -2.429,-17.012 0,-26.75 24.329,-26.75 h 265.207 c 68.128,0 128.933,48.66 138.671,99.75 l 12.149,68.148 c 9.762,53.493 -26.766,97.282 -104.609,97.282 z m 596.107,408.759 c -17.04,-104.62 -90.02,-197.06 -187.35,-243.28 -19.47,-9.74 -24.34,-21.91 -4.86,-31.64 80.27,-46.24 119.22,-141.125 99.73,-243.308 l -12.16,-68.121 C 1309.56,491.961 1093.02,307.039 754.828,307.039 H 76.0195 c -12.1562,0 -19.4609,4.883 -17.0351,24.352 L 321.754,1817.97 c 2.426,19.46 12.184,24.32 24.336,24.32 h 678.82 c 177.59,0 306.56,-41.35 381.97,-121.65 65.69,-72.99 90.03,-175.17 65.69,-311.42 l -12.15,-70.57"
         style="fill:#ffffff;fill-opacity:1;fill-rule:nonzero;stroke:none"
         transform="matrix(0.13333333,0,0,-0.13333333,0,249.85333)" />
      <path
         id="path42"
         d="m 4564.63,1706.39 -28.69,-162.69 c -2.95,-16.57 -18.24,-29.54 -34.89,-29.54 h -162.69 c -8.43,0 -15.86,3.33 -20.97,9.39 -5.1,6.1 -7.19,14.39 -5.68,22.81 l 28.71,162.7 c 2.89,16.57 18.22,29.55 34.84,29.55 h 162.66 c 8.46,0 15.91,-3.34 21,-9.42 5.1,-6.06 7.17,-14.38 5.71,-22.8 z m -258.71,-219.91 -28.67,-162.7 c -2.92,-16.54 -18.26,-29.55 -34.86,-29.55 h -162.69 -0.02 c -8.47,0 -15.9,3.35 -21.01,9.43 -5.07,6.05 -7.16,14.37 -5.7,22.79 l 28.72,162.69 c 2.9,16.58 18.21,29.56 34.86,29.56 h 0.02 162.67 c 8.48,0 15.89,-3.34 21.01,-9.42 5.09,-6.07 7.15,-14.38 5.67,-22.8 z m -77.54,-439.82 -28.68,-162.687 c -2.94,-16.563 -18.23,-29.543 -34.9,-29.543 h -162.69 c -8.45,0 -15.87,3.34 -20.97,9.39 -5.1,6.09 -7.18,14.391 -5.68,22.809 l 28.67,162.691 c 2.92,16.57 18.27,29.55 34.84,29.55 h 162.71 c 8.45,0 15.88,-3.33 20.99,-9.41 5.1,-6.05 7.13,-14.37 5.71,-22.8 z m -407.42,27.66 c -8.43,0 -15.87,3.34 -20.94,9.41 -5.14,6.09 -7.2,14.38 -5.7,22.82 l 28.67,162.69 c 2.94,16.58 18.23,29.55 34.88,29.55 h 162.68 c 8.45,0 15.9,-3.35 20.96,-9.4 5.14,-6.09 7.2,-14.4 5.73,-22.82 l -28.7,-162.69 c -2.9,-16.57 -18.24,-29.56 -34.88,-29.56 z m 1058.98,799.27 0.04,0.33 h -65.92 l -19.43,-110.3 c -2.92,-16.57 -18.23,-29.57 -34.88,-29.57 h -162.69 c -8.44,0 -15.91,3.34 -21.01,9.41 -5.05,6.09 -7.15,14.39 -5.66,22.81 l 17.36,98.39 c -162.49,-24.76 -293.29,-98.4 -379.66,-207.25 l -531.8,-497.57 c -9.08,-9.13 -9.08,-15.96 -4.56,-25.07 l 28.77,-55.9 h 61.39 c 8.43,0 15.87,-3.33 20.96,-9.41 5.12,-6.05 7.2,-14.37 5.7,-22.8 l -18.23,-103.43 43.33,-84.281 h 129.34 c 8.47,0 15.92,-3.32 20.99,-9.41 5.1,-6.039 7.2,-14.367 5.71,-22.789 l -28.71,-162.691 c -1.63,-9.457 -7.43,-17.661 -15.15,-23.028 l 83.44,-162.121 0.04,0.199 c 62.7,-127.687 207.14,-203.687 420.6,-203.687 h 167.87 l 0.08,0.84 c 311.35,13 528.08,191.898 577.57,456.558 l 21.1,111.27 c 2.45,19.449 -14.6,24.332 -21.88,24.332 h -346.38 c -7.31,0 -26.1,-4.883 -30.76,-24.332 l -21.05,-111.27 c -12.42,-60.808 -66.42,-102.191 -146.72,-102.191 h -139.02 c -80.31,0 -119.22,41.383 -109.5,102.191 l 60.53,346.97 c -5.45,-3.41 -11.75,-5.47 -18.25,-5.47 h -162.71 c -8.44,0 -15.92,3.34 -20.97,9.41 -5.1,6.09 -7.15,14.38 -5.69,22.82 l 28.72,162.69 c 2.85,16.58 18.2,29.55 34.83,29.55 h 162.67 c 7.14,0 13.49,-2.52 18.36,-6.9 l 21.75,124.61 c 9.73,60.84 65.68,102.2 148.4,102.2 h 145.99 c 82.71,0 123.59,-41.36 111.21,-102.2 l -22.12,-116.64 c -2.46,-19.47 14.59,-24.32 21.89,-24.32 h 346.37 c 7.31,0 26.1,4.85 30.76,24.32 l 22.09,116.64 c 50.43,269.59 -107.06,450.15 -425.11,457.09"
         style="fill:#ffffff;fill-opacity:1;fill-rule:nonzero;stroke:none"
         transform="matrix(0.13333333,0,0,-0.13333333,0,249.85333)" />
      <path
         id="path43"
         d="M 1448.54,756.172 1647.6,1821.66 c 4.57,19.12 11.11,23.89 27.82,23.89 h 351.2 c 11.94,0 19.74,-4.77 15.16,-23.89 L 1842.7,756.172 c -12.17,-59.723 16.93,-97.953 100.53,-97.953 h 97.43 c 83.61,0 126.62,38.23 136.19,97.953 l 188.73,1065.488 c 2.37,19.12 11.92,23.89 23.86,23.89 h 351.22 c 16.71,0 21.49,-4.77 19.11,-23.89 L 2571.02,756.172 C 2523.23,486.219 2284.34,307.039 1978.54,307.039 h -167.23 -674.73 c 163.17,89.121 275.5,238.641 309.33,429.262 l 2.63,19.871"
         style="fill:#ffffff;fill-opacity:1;fill-rule:nonzero;stroke:none"
         transform="matrix(0.13333333,0,0,-0.13333333,0,249.85333)" />
    </g>
  </g>
</svg>
