<?xml version="1.0" encoding="UTF-8"?>
<svg id="Layer_2" data-name="Layer 2" xmlns="http://www.w3.org/2000/svg" viewBox="0 0 304.66 53.7">
  <g id="Layer_1-2" data-name="Layer 1">
    <g>
      <path d="M40.13,22.06c-2.97-2.76-6.67-5.12-10.85-5.12-5.53,0-10.04,4.38-10.04,9.91s4.79,9.91,10.31,9.91c4.25,0,7.62-1.82,10.58-4.72l-.54,19.01c-2.97,1.42-9.84,2.02-13.15,2.02C11.95,53.07.62,41.81.62,27.32S12.29.63,27.18.63c4.18,0,8.49.74,12.4,2.09l.54,19.35Z" style="fill: #fff; stroke: #000; stroke-miterlimit: 10; stroke-width: 1.25px;"/>
      <path d="M175.01,2.24l26.15-.81v50.83h-18.34V17.75l-7.82.54V2.24Z" style="fill: #fff; stroke-width: 0px;"/>
      <path d="M253,26.38c0,15.23-8.56,26.69-24.27,26.69s-24.27-11.46-24.27-26.69c0-14.43,8.9-25.75,24.27-25.75s24.27,11.32,24.27,25.75ZM222.13,26.85c0,3.91,1.42,11.19,6.61,11.19s6.61-7.28,6.61-11.19c0-4.18-1.08-10.45-6.61-10.45s-6.61,6.27-6.61,10.45Z" style="fill: #fff; stroke-width: 0px;"/>
      <path d="M304.03,26.38c0,15.23-8.56,26.69-24.27,26.69s-24.27-11.46-24.27-26.69c0-14.43,8.9-25.75,24.27-25.75s24.27,11.32,24.27,25.75ZM273.16,26.85c0,3.91,1.42,11.19,6.61,11.19s6.61-7.28,6.61-11.19c0-4.18-1.08-10.45-6.61-10.45s-6.61,6.27-6.61,10.45Z" style="fill: #fff; stroke-width: 0px;"/>
      <path d="M43.29,1.43h18.47v34.51h15.5v16.31h-33.97V1.43Z" style="fill: #fff; stroke: #000; stroke-miterlimit: 10; stroke-width: 1.25px;"/>
      <path d="M125.74,1.43v30.06c0,14.83-9.3,21.57-23.53,21.57s-23.53-6.74-23.53-21.57V1.43h18.47v28.31c0,3.98.13,7.48,5.06,7.48s5.06-3.51,5.06-7.48V1.43h18.47Z" style="fill: #fff; stroke: #000; stroke-miterlimit: 10; stroke-width: 1.25px;"/>
      <path d="M129.04,1.43h21.5c9.84,0,19.89,2.36,19.89,14.09,0,4.45-2.22,8.83-6.67,10.25v.4c5.53,1.95,9.03,6,9.03,12.07,0,10.45-9.71,14.02-18.61,14.02h-25.14V1.43ZM147.85,20.98c2.7,0,5.73-.27,5.73-3.78,0-3.78-3.44-3.51-6.13-3.51h-1.28v7.28h1.69ZM146.16,40.13h2.09c3.03,0,7.42-.07,7.42-4.25s-4.72-4.18-7.68-4.18h-1.82v8.43Z" style="fill: #fff; stroke: #000; stroke-miterlimit: 10; stroke-width: 1.25px;"/>
    </g>
    <g>
      <path d="M20.57,1.44c-1.9.48-3.72,1.16-5.42,2.02h5.42V1.44Z" style="fill: #020202; stroke-width: 0px;"/>
      <path d="M34.82,3.46l1.72-1.65c-2.43-.62-4.96-.99-7.47-1.12v2.77h5.75Z" style="fill: #020202; stroke-width: 0px;"/>
      <polygon points="20.57 3.46 20.57 11.96 25.99 11.96 29.07 9 29.07 3.46 20.57 3.46" style="fill: #020202; stroke-width: 0px;"/>
      <path d="M12.06,5.28c-2.62,1.8-4.88,4.07-6.69,6.68h6.69v-6.68Z" style="fill: #020202; stroke-width: 0px;"/>
      <polygon points="12.06 11.96 12.06 20.47 17.16 20.47 20.57 17.19 20.57 11.96 12.06 11.96" style="fill: #020202; stroke-width: 0px;"/>
      <path d="M3.56,15.01c-.88,1.72-1.58,3.55-2.07,5.46h2.07v-5.46Z" style="fill: #020202; stroke-width: 0px;"/>
      <polygon points="3.56 20.47 3.56 28.97 8.32 28.97 12.06 25.37 12.06 20.47 3.56 20.47" style="fill: #020202; stroke-width: 0px;"/>
      <path d="M.69,28.97c.13,2.18.51,4.28,1.13,6.26l1.74-1.68v-4.59H.69Z" style="fill: #020202; stroke-width: 0px;"/>
    </g>
    <g>
      <path d="M175.01,2.24l26.15-.81v50.83h-18.34V17.75l-7.82.54V2.24Z" style="fill: none; stroke: #000; stroke-miterlimit: 10; stroke-width: 1.25px;"/>
      <path d="M253,26.38c0,15.23-8.56,26.69-24.27,26.69s-24.27-11.46-24.27-26.69c0-14.43,8.9-25.75,24.27-25.75s24.27,11.32,24.27,25.75ZM222.13,26.85c0,3.91,1.42,11.19,6.61,11.19s6.61-7.28,6.61-11.19c0-4.18-1.08-10.45-6.61-10.45s-6.61,6.27-6.61,10.45Z" style="fill: none; stroke: #000; stroke-miterlimit: 10; stroke-width: 1.25px;"/>
      <path d="M304.03,26.38c0,15.23-8.56,26.69-24.27,26.69s-24.27-11.46-24.27-26.69c0-14.43,8.9-25.75,24.27-25.75s24.27,11.32,24.27,25.75ZM273.16,26.85c0,3.91,1.42,11.19,6.61,11.19s6.61-7.28,6.61-11.19c0-4.18-1.08-10.45-6.61-10.45s-6.61,6.27-6.61,10.45Z" style="fill: none; stroke: #000; stroke-miterlimit: 10; stroke-width: 1.25px;"/>
    </g>
  </g>
</svg>